<svg xmlns="http://www.w3.org/2000/svg" width="5282.667" height="1704" viewBox="0 0 3962 1278"><path d="M670 15.9c-1.4.4-9.4 1.1-17.9 1.5-69.8 3.1-141.6 17.8-199.6 40.7-30 11.9-66.2 31.3-89.9 48.1-33.8 24-68.5 57.5-93.1 89.8-34.2 45.1-61.1 102.1-77.5 164.7l-1.1 4.3-94.9.2-94.9.3L11.2 381c5.6 8.5 25.4 39.3 44.1 68.5 18.7 29.1 35.4 54.8 37 57 1.7 2.2 3.2 4.1 3.3 4.3s17.5.3 38.8.2H173v27.7c0 48.1 3.6 90.9 12.6 149.8 6.6 43 20.6 107.2 26.9 123.7l2.6 6.6 11.2-5.3c6.2-2.9 36.5-17.8 67.4-33.1l56.1-27.9-2.5-8c-4.6-15.2-15.4-75-20.8-115-5.2-40-8.5-80.4-8.5-106.1V511h169.8c93.3 0 172.7.3 176.5.7l6.7.6v117.5c0 93.5.3 117.3 1.3 116.9.6-.3 33.2-16.7 72.2-36.4l71-35.8.3-329.8L816 15l-71.7.1c-39.5 0-72.9.4-74.3.8m-26 249.3v74.3l-122.7-.3c-67.6-.1-125.9-.3-129.6-.5l-6.8-.2 7.8-13.3c13.9-23.9 31-45 48.7-59.9C487 227 547.1 203 623 193c7.4-1 15.2-1.9 17.3-1.9l3.7-.1zM1097 16c-60.3 4.1-113.5 31.6-153.2 79-27.6 32.9-45.1 73.5-49.8 115.5-1.4 12.8-1.2 44 .5 57.5 5.7 47.6 25.3 88.6 59.2 124 35.2 36.7 74.2 57.1 125.8 65.7 10.2 1.7 17.4 1.8 95.5 1.4 90-.3 95.9-.1 113.9 4.5 17.4 4.4 34.9 14.8 42.6 25.2 8.4 11.5 14.6 26.7 16.7 40.8 1 7 .9 9.7-.4 17.1-2.2 12.4-5.1 19.3-11.8 28.1-13.8 18.3-43.2 36.8-95 59.7-23.8 10.6-105 48.1-179.5 83-37 17.3-137.1 63.7-142 65.8-3.3 1.4-10.8 4.9-16.8 7.6L892 796l.2 81.8.3 81.8 14.5-6.7c8-3.7 26.2-12.2 40.5-18.9 26.6-12.5 130.2-60.9 195.5-91.2 20.1-9.4 68.7-31.8 108-50 82.7-38.1 98-45.4 112.7-53.8 16.3-9.3 34.9-21.9 47-31.9 12-9.8 36.4-34.3 43.5-43.6 20.5-27 33.3-57.2 38.5-91 2.4-15.6 2.4-54.6 0-70.9-7.2-48.5-28.8-89.4-66.3-125.6-33.4-32.2-73.1-51.2-124.4-59.6-9.1-1.5-22.4-1.8-102-2.4-98.4-.7-95.8-.6-112.1-6-6.6-2.3-17.2-8.2-23.2-12.9-11.9-9.6-22.5-30.3-25.7-50.2-1.1-6.6-1-8.8.4-15.9 8.1-39.8 34.3-63.5 73.9-67 6.9-.6 80.1-1 190-1 98.3 0 178.7-.2 178.7-.5 0-.2-13.6-21.1-30.2-46.2-16.5-25.2-36.8-56.1-45.1-68.7-8.2-12.7-16.3-24.7-18.1-26.8l-3.1-3.8-139 .2c-76.4 0-143.7.4-149.5.8M2285.7 18.2c.4.7 3.3 5.5 6.5 10.7 3.1 5.1 23.8 37.4 46 71.7l40.3 62.4h69.5v814.9l7.3-3.3c3.9-1.9 34-15.5 66.7-30.4 219.1-99.3 340-153.7 396.5-178.2 33.7-14.6 36.8-16 50.5-23.3 52-27.7 93.2-67.4 113.6-109.2 14.9-30.7 21.6-66.7 20-107.4-1.8-48.5-15.6-88.4-42.7-124.3-11.7-15.4-34.2-37.2-54.2-52.3l-2.6-2 5.8-11.7c15.3-30.6 22.1-60.8 22.1-97.6 0-66.1-20.1-114.8-65.1-157.6C2925 41.7 2875.9 22 2810 18c-26.2-1.6-525.3-1.4-524.3.2M2790 163c33.3 2.4 56 9.1 71.8 21.2 12.4 9.6 23.2 33.6 23.2 51.7 0 17.5-10 41.2-21.1 50.3-13.3 10.8-32.5 17.9-59 21.8-11.3 1.7-18.8 2-47.6 2H2723v146h76.3c61.1 0 78.1.3 85.7 1.4 34.4 5.2 60.4 27.5 69.6 59.6 2.9 10.1 2.7 31-.4 41-5.3 17.1-14.5 28.2-34.3 41.2-21.9 14.6-30 18.6-87.9 43.8-51 22.2-130.1 57.2-216 95.7-8 3.6-16.4 7.3-18.7 8.4l-4.3 1.8V162h91.3c51.2 0 97.6.5 105.7 1"/><path d="M1554 18.7c0 .4 2.3 4.3 5.2 8.7 2.8 4.5 6.7 10.6 8.6 13.6 2 3 20.6 31.8 41.5 63.9 20.8 32.1 38.1 59 38.4 59.7.2.7-2.3 4.8-5.8 9.1-9.4 11.8-23.3 33-32.5 49.6-19.2 34.5-33.5 74.3-40.8 113.7-5.4 28.7-6 36.8-6 77.5s.6 48.8 6 77.5c12.4 66.5 42.5 128.5 87.5 180.5 10.7 12.3 37.4 38.6 48.9 48.1 51.1 42.3 108.9 70.1 171.5 82.4 28.6 5.6 47.2 7.2 81.5 7.2 24.9 0 33.9-.3 48.9-2.1 75-8.8 142.2-37.1 200.3-84.3 13.9-11.3 40.8-37.6 53.5-52.3 52.9-61.3 83.8-133.9 91.8-216 2.2-21.8 1.6-71.9-.9-92.5-9.8-78.2-41.7-149.2-93.3-208-36.1-41.1-76.2-72.7-121.3-95.4-47-23.8-92.3-36.5-144.9-40.6-15.2-1.1-438.1-1.5-438.1-.3M1991.5 166c42.7 6.6 84.3 23.8 117.5 48.8 20.9 15.8 34.5 29.5 49.7 50.2 32.3 44 50.4 97.6 50.4 149.5 0 47.2-15.6 97.5-43 138.6-15.6 23.4-29.7 39.2-48.8 54.6-36.8 29.5-80.5 48.5-129.3 55.9-13.8 2.1-44.4 2.4-56.5.6-52.4-8.1-95.2-26.3-132.7-56.5-37.4-30-67.8-76.6-81.6-124.9-13.7-47.7-13.7-88.9 0-136.6 9-31.3 26.8-65.4 48.1-91.7 45.2-56 125-92.8 197.2-91 8.3.2 21.3 1.4 29 2.5M3162.6 22.1c1.4 2.3 22.6 35 47.1 72.7s44.7 69.1 45 69.8c.2.6-2.7 5.2-6.5 10.1-34.2 43.5-59.9 99.8-71.7 157-5.8 28.4-7 41.6-7 82.8 0 33.8.3 39.8 2.3 54.3 10.6 77.9 40.9 145.4 91.3 203.7 12.3 14.2 40.3 41.3 54.4 52.6 58.2 46.7 124.1 74.2 199.5 83.1 25.4 3 71 2.9 96.9-.1 75.3-8.9 142.2-37.1 201.1-84.9 13.6-11 48.2-45.7 59.2-59.2 47.2-58.3 75.2-124.3 84.5-199 1.4-11.5 1.8-21.9 1.8-50.5 0-38.9-1-51.5-6.1-78-10.1-51.9-30.8-101.6-60.2-144.5-25.7-37.5-63.3-75.8-100.7-102.5-57.8-41.3-124-65.2-195-70.5-9-.6-89.7-1-226.3-1H3160zM3582.3 164c52.4 5 101.4 24.7 141.7 57.1 52.6 42.2 87.6 111.4 91.9 181.6 1.7 29-3.9 64.9-15.1 95.8-8.9 24.7-26.1 55-43.2 76.1-31.5 39.1-83 70.8-135.9 83.8-20.3 5-35.6 6.9-56.2 7-19.5 0-25.5-.6-48-5-38.4-7.5-80.9-27.7-112.4-53.2-37.7-30.6-67.7-77.1-81.5-126.3-13-46.4-13-86.4 0-132.8 15.5-55.3 49.3-103.9 94.7-136.5 47.4-33.8 111.7-52.5 164-47.6M1080.5 1088.5c-13.5 2.5-23 7.3-31.6 15.8-9.9 9.9-13.9 20.4-13.9 36.4 0 17.4 4.1 28.1 15 39.3 7.6 7.8 13.4 11.2 37.6 22 23.7 10.6 29.4 15.4 29.4 24.7 0 6.5-2.5 10.9-7.9 14.1-4.3 2.5-5.3 2.7-16.6 2.7-16.8 0-26.4-3.5-44.8-16.2l-9.2-6.3-.3 18.7c-.1 10.3 0 19.3.2 20 .9 2.3 22.9 12.3 33.1 14.9 28.6 7.4 54.6 2.2 71.1-14.1 10.9-10.8 15.4-22.2 15.4-39 0-17.1-4.4-28.1-15.9-39.6-8.2-8.1-15.1-12.1-39.8-23.2-20.7-9.2-26.3-14-26.3-22.3 0-5.2 3-9.8 8.2-12.6 3.8-2 5.7-2.3 16.3-2.3 10.9.1 12.9.4 21.5 3.3 5.2 1.8 13.7 5.3 18.9 7.8 5.1 2.4 9.5 4.4 9.7 4.4s.4-8 .4-17.9v-17.8l-6.7-3c-21.5-9.6-45.2-13.3-63.8-9.8M2902.8 1088c-20.4 3.2-35.4 10.7-49 24.3-12 12-20.2 26-25.4 43.2-2.5 8.3-2.8 10.4-2.8 26.5-.1 15.3.2 18.6 2.2 26 8.1 29.5 29.2 53.9 55.2 63.6 33.6 12.7 71 6.1 95.6-16.9 22-20.5 32.5-46.6 31.1-77.2-1.2-24.7-9.6-44.6-26.5-62.6-17.5-18.6-35.4-26.5-62.2-27.4-6.9-.2-15.1 0-18.2.5m30.5 39.7c11.4 3.1 22.8 12.7 28.6 24 5.3 10.6 6.5 16.5 6.5 30.8 0 9.7-.4 14.5-1.8 18.9-5.5 18.2-17 30.7-32.9 35.8-8.7 2.8-23.8 2.8-32.7-.1-12.2-3.8-23.3-13.6-28.9-25.4-8.6-18.1-7.9-45.2 1.7-61.7 3.4-5.9 11.7-14.6 16.7-17.6 12.1-7 27.7-8.7 42.8-4.7M1375.5 1106.5v16.5h58.5v152h40v-152h59v-33h-157.5zM1759 1152.2c.6 70.6.5 69.6 8.7 86.8 8.7 18.1 25 30.8 46.8 36.2 11.9 2.9 35.9 3.2 47.8.6 23.1-5.2 39.3-17 48.2-35.2 9.1-18.4 8.9-16.5 9.3-87.9l.3-62.7H1880v56.8c0 61.8-.1 63.1-5.7 73.4-7.5 13.8-24.8 21.5-42.1 18.8-13.4-2.1-23.4-9.5-29.4-21.8l-3.3-6.7-.3-60.3-.3-60.2h-40.4zM2158 1182.5v92.6l44.3-.3c50.8-.5 52.6-.7 71.2-9.8 29.2-14.3 44.5-42.6 44.5-82.1 0-27.7-7.8-49.7-23.6-66.8-10.8-11.7-22.5-18.8-37.9-23.2-7.7-2.2-9.7-2.3-53.2-2.7l-45.3-.3zm79.2-58.1c26.7 5.7 41 28.2 39.5 62.1-.6 14.6-3.6 24.8-10.2 34.6-10.8 16-24.4 21.2-53.5 20.7l-15.5-.3-.3-58c-.1-31.9 0-58.6.3-59.3.7-1.8 30.9-1.6 39.7.2M2552 1182.5v92.5h40v-185h-40z"/></svg>