<svg xmlns="http://www.w3.org/2000/svg" width="32" height="32" fill="none" class="u-hide-not-mobile" viewBox="0 0 32 32"><rect width="32" height="32" fill="#6b4bcc" rx="7.121" transform="matrix(1 0 0 -1 0 32)"/><path fill="#fff" d="M13.943 17.799c1.054 0 1.896-.764 1.896-1.803s-.842-1.803-1.896-1.803c-1.023 0-1.896.764-1.896 1.803s.873 1.803 1.896 1.803M20.958 17.22v7.926c0 .787.596 1.42 1.37 1.42.806 0 1.402-.633 1.402-1.42V6.843c0-.786-.596-1.42-1.402-1.42-.774 0-1.37.634-1.37 1.42zM11.038 14.647V6.842c0-.786-.597-1.42-1.402-1.42-.772-.003-1.368.634-1.368 1.42v18.303c0 .786.596 1.42 1.37 1.42.806 0 1.402-.634 1.402-1.42V14.647z"/></svg>