<svg xmlns="http://www.w3.org/2000/svg" width="224" height="29" fill="none" viewBox="0 0 224 29"><path fill="#fff" d="M214.274 14.394C219.935 12.372 224 6.96 224 .616h-6.616c0 4.416-3.593 8.01-8.01 8.01s-8.014-3.594-8.014-8.01h-6.616c0 6.347 4.065 11.76 9.726 13.778-5.661 2.022-9.726 7.435-9.726 13.779h6.616c0-4.417 3.594-8.01 8.014-8.01 4.421 0 8.01 3.593 8.01 8.01H224c0-6.348-4.065-11.76-9.726-13.779M146.085.637h-16.292v27.548h16.292c7.597 0 13.774-6.178 13.774-13.774S153.682.637 146.085.637m0 20.932h-9.676V7.253h9.676c3.945 0 7.158 3.209 7.158 7.158a7.163 7.163 0 0 1-7.158 7.158M179.8 0h-3.155c-7.932 0-14.382 6.45-14.382 14.382 0 7.93 6.45 14.382 14.382 14.382h3.155c7.931 0 14.382-6.451 14.382-14.382S187.731 0 179.8 0m0 22.148h-3.155c-4.28 0-7.766-3.482-7.766-7.766s3.482-7.766 7.766-7.766h3.155c4.28 0 7.766 3.482 7.766 7.766s-3.482 7.766-7.766 7.766M111.21 0c-8.068 0-14.626 6.562-14.626 14.626v13.55h6.616v-8.01h16.024v8.01h6.616v-13.55C125.836 6.562 119.273 0 111.21 0m0 6.616c4.052 0 7.402 3.027 7.931 6.935h-15.862c.529-3.908 3.879-6.935 7.931-6.935M45.577 0c-8.067 0-14.63 6.562-14.63 14.63v13.55h6.616v-8.01h16.024v8.01h6.616V14.63C60.203 6.562 53.641 0 45.577 0m0 6.616c4.053 0 7.402 3.027 7.932 6.935H37.646c.53-3.908 3.879-6.935 7.931-6.935M93.015 10.45c0-5.422-4.408-9.83-9.829-9.83H64.19v27.56h6.617v-7.897h7.464c4.552 0 8.253 3.543 8.253 7.898h6.617c0-3.825-1.526-7.307-4.012-9.904 2.362-1.799 3.892-4.635 3.892-7.828zm-22.21 3.212v-6.43h12.381a3.216 3.216 0 0 1 3.213 3.213 3.22 3.22 0 0 1-3.213 3.213h-12.38zM18.997.62H0v27.56h6.616v-7.897h12.38c5.422 0 9.83-4.408 9.83-9.83 0-5.42-4.408-9.833-9.83-9.833m0 13.047H6.617v-6.43h12.38a3.216 3.216 0 0 1 3.213 3.212 3.22 3.22 0 0 1-3.213 3.213z"/></svg>