<svg xmlns="http://www.w3.org/2000/svg" width="214.789" height="75.923" viewBox="0 0 214.789 75.923"><defs><clipPath id="a"><path fill="none" d="M0 0h120.298v39.462H0z" data-name="Rectangle 3"/></clipPath><clipPath id="b"><path fill="none" d="M0 0h75.923v75.923H0z" data-name="Rectangle 46"/></clipPath></defs><g data-name="LOGO P+P"><g data-name="Logo Txt"><g clip-path="url(#a)" data-name="Groupe 4" transform="translate(94.491 18.23)"><path fill="#001e41" d="M1.789 10.825v6.072H0V.399h5.742a6.34 6.34 0 0 1 4.378 1.436 4.72 4.72 0 0 1 1.647 3.79 4.78 4.78 0 0 1-1.623 3.789 6.46 6.46 0 0 1-4.4 1.412Zm0-8.731v7.06H6c2.448 0 3.977-1.2 3.977-3.53 0-2.259-1.529-3.53-3.977-3.53Z" data-name="Tracé 3"/><path fill="#001e41" d="m44.95 16.897-4.306-6.072h-3.93v6.072h-1.789V.399h5.742a6.34 6.34 0 0 1 4.378 1.436 4.72 4.72 0 0 1 1.647 3.79 4.91 4.91 0 0 1-4 4.99l4.4 6.283Zm-8.237-14.8v7.06h4.213c2.448 0 3.977-1.2 3.977-3.53 0-2.259-1.529-3.53-3.977-3.53Z" data-name="Tracé 4"/><path fill="#001e41" d="M52.858 16.898V.4h1.812v9.531L62.366.4h2.095l-5.7 7.107 6.072 9.391h-2.161l-5.154-7.884-2.848 3.529v4.355Z" data-name="Tracé 5"/><path fill="#001e41" d="M70.697 16.898V.4h10.8v1.695h-9.012v5.553h8.755v1.695h-8.755v5.86h9.014v1.695Z" data-name="Tracé 6"/><path fill="#001e41" d="m98.608 16.897-4.306-6.072h-3.93v6.072h-1.789V.399h5.741a6.34 6.34 0 0 1 4.379 1.436 4.72 4.72 0 0 1 1.647 3.79 4.91 4.91 0 0 1-4 4.99l4.4 6.283Zm-8.237-14.8v7.06h4.213c2.448 0 3.977-1.2 3.977-3.53 0-2.259-1.529-3.53-3.977-3.53Z" data-name="Tracé 7"/><path fill="#001e41" d="M21.84 0h-.212l-7.743 16.9h1.93l.99-2.184h-.014l1.48-3.323h-.005l.388-.853.372-.837h.009l2.691-5.912 2.576 5.661h.034l.657 1.521.192.422h-.01l1.38 3.194 1.074 2.311h1.954Z" data-name="Tracé 8"/><path fill="#d3ff03" d="M8.827 28.8v-5.055H5.08V28.8H0v3.674h5.08v5.1h3.747v-5.1h5.008V28.8Z" data-name="Tracé 9"/><path fill="#001e41" d="M114.557 33.392a6.46 6.46 0 0 1-4.4-1.412 4.78 4.78 0 0 1-1.623-3.788 4.72 4.72 0 0 1 1.648-3.788 6.33 6.33 0 0 1 4.375-1.434h5.743v16.492h-1.79v-6.07Zm-.257-8.729c-2.448 0-3.977 1.27-3.977 3.529 0 2.33 1.529 3.529 3.977 3.529h4.211v-7.058Z" data-name="Tracé 10"/><path fill="#001e41" d="m73.209 39.462 4.4-6.283a4.91 4.91 0 0 1-4-4.988 4.72 4.72 0 0 1 1.648-3.788 6.33 6.33 0 0 1 4.376-1.434h5.742v16.493h-1.789v-6.07h-3.93l-4.305 6.07Zm6.165-14.8c-2.448 0-3.977 1.27-3.977 3.529 0 2.33 1.529 3.529 3.977 3.529h4.212v-7.057Z" data-name="Tracé 11"/><path fill="#001e41" d="M65.629 39.462v-4.354l-2.848-3.528-5.152 7.882h-2.165l6.071-9.387-5.694-7.106h2.095l7.694 9.528v-9.529h1.811v16.494Z" data-name="Tracé 12"/><path fill="#001e41" d="M38.801 39.462v-1.694h9.012v-5.859H39.06v-1.694h8.753v-5.553h-9.012v-1.694h10.8v16.494Z" data-name="Tracé 13"/><path fill="#001e41" d="m19.551 39.462 4.4-6.283a4.91 4.91 0 0 1-4-4.988 4.72 4.72 0 0 1 1.648-3.788 6.33 6.33 0 0 1 4.376-1.434h5.744v16.493h-1.791v-6.07h-3.93l-4.305 6.07Zm6.165-14.8c-2.448 0-3.977 1.27-3.977 3.529 0 2.33 1.529 3.529 3.977 3.529h4.212v-7.057Z" data-name="Tracé 14"/><path fill="#001e41" d="M98.581 22.564h-.212l-7.742 16.9h1.929l1.718-3.789.729-1.718 3.46-7.6 3.46 7.6.683 1.718 1.765 3.789h1.953Z" data-name="Tracé 15"/></g></g><g data-name="Groupe 36"><path fill="#d3ff03" d="M0 .001h75.923v75.923H0z" data-name="Rectangle 45"/><g data-name="Groupe 35"><g fill="#001e41" clip-path="url(#b)" data-name="Groupe 34"><path d="M35.186 21.101H24.761v1.808c.206 1.995 1.215 4.929 5.367 4.929h4.736c5.557 0 8.885 3.819 8.885 8.394s-3.328 8.393-8.885 8.393h-5.178v10.2h6.754v-3.67c9.579-.566 14.723-7.631 14.723-15 0-7.689-5.586-15.049-15.97-15.049" data-name="Tracé 234"/><path d="M37.961 36.183a3.03 3.03 0 0 0-3.032-3.032h-4.8v6.064h4.8a3.03 3.03 0 0 0 3.032-3.031" data-name="Tracé 235"/></g></g></g></g></svg>