<svg xmlns="http://www.w3.org/2000/svg" width="1583" height="654" fill="none" viewBox="0 0 1583 654"><path fill="#364657" d="M325.247 217.32h76.328v-5.295C401.348 94.885 311.749 0 201.25 0S1.154 94.886.926 212.025c0 0-10.267 132.702 72.823 176.75l3.426-176.75c.24-68.68 55.695-124.283 124.075-124.283s123.834 55.603 124.073 124.283zM330.79 261.315l-3.426 176.749c-.239 68.68-58.662 128.02-127.04 128.02-68.377 0-123.833-55.604-124.072-124.284l.173-12.045H0V441.8c.227 117.14 89.826 212.025 200.324 212.025s204.113-93.583 204.339-210.723c-.002.002 10.134-119.076-73.873-181.787"/><path fill="#364657" d="M201.048 286.494c52.634 0 95.302-40.284 95.302-89.977 0-49.692-42.668-89.976-95.302-89.976s-95.303 40.284-95.303 89.976 42.668 89.977 95.303 89.977"/><path fill="#364657" stroke="#364657" stroke-miterlimit="10" stroke-width="3" d="M558.189 361.59q-14.976-5.173-23.144-13.662l6.074-11.799q7.96 7.87 21.154 12.732a78.1 78.1 0 0 0 27.227 4.864c13.125 0 22.966-2.381 29.532-7.142q9.843-7.141 9.843-18.527 0-8.692-5.34-13.868-5.344-5.173-13.09-7.97-7.75-2.792-21.574-6.106-16.546-4.139-26.39-7.97-9.846-3.827-16.861-11.695-7.018-7.865-7.016-21.321 0-10.971 5.866-19.976 5.863-9.003 18.011-14.387 12.145-5.384 30.161-5.384a89.8 89.8 0 0 1 24.611 3.415q12.04 3.417 20.838 9.42l-5.236 12.212q-9.217-6.001-19.688-9.004-10.475-3-20.525-3-19.27.001-29.009 7.348-9.738 7.35-9.739 18.94 0 8.695 5.341 13.973 5.343 5.279 13.404 8.073 8.06 2.797 21.679 6.106 16.125 3.936 26.075 7.762c6.629 2.556 12.252 6.417 16.861 11.592q6.91 7.765 6.911 21.013c0 7.315-1.99 13.971-5.969 19.976q-5.969 9.004-18.326 14.284-12.36 5.278-30.37 5.278-16.337-.002-31.311-5.177ZM693.382 233.869v56.926H769.2v13.249h-75.818v61.479h-15.499V220.621h100.533v13.248h-85.034ZM925.132 303.111q7.854 9.214 7.853 23.702-.002 18.63-13.925 28.669-13.935 10.04-41.157 10.039h-67.442V220.619h63.252q24.505 0 38.014 9.729 13.508 9.732 13.507 27.532-.001 12.006-5.97 20.39c-3.978 5.589-9.461 9.763-16.44 12.524 9.633 2.069 17.071 6.178 22.308 12.317Zm-99.173-69.864v52.579h46.704q17.803.001 27.438-6.728 9.637-6.724 9.636-19.562 0-12.833-9.636-19.563c-6.422-4.482-15.57-6.728-27.438-6.728h-46.704zm81.474 113.025q10.05-6.623 10.052-20.699-.002-27.118-39.796-27.119h-51.732v54.443h51.732c13.126-.002 23.041-2.207 29.744-6.625ZM1058.23 365.523l-47.33-63.757-47.124 63.757h-17.803l55.707-74.522-52.146-70.38h17.803l44.193 59.202 43.98-59.202h16.76l-51.95 69.966 55.93 74.936z"/><path fill="#364657" d="M1138.35 172.404c6.21 3.511 11.1 8.339 14.65 14.484s5.33 12.957 5.33 20.438c0 7.482-1.82 14.331-5.45 20.552q-5.445 9.334-14.82 14.712c-6.26 3.588-13.17 5.382-20.74 5.382s-14.46-1.794-20.68-5.382c-6.22-3.586-11.12-8.472-14.71-14.655s-5.39-12.976-5.39-20.38 1.8-14.198 5.39-20.38c3.59-6.183 8.51-11.066 14.77-14.656 6.26-3.586 13.2-5.381 20.85-5.381 7.65-.002 14.58 1.754 20.8 5.266m-2.5 66.463c5.57-3.243 9.97-7.631 13.21-13.168 3.25-5.532 4.87-11.659 4.87-18.377 0-6.716-1.59-12.804-4.75-18.262-3.17-5.455-7.51-9.769-13.03-12.937q-8.295-4.75-18.6-4.751c-6.87 0-13.11 1.603-18.71 4.808q-8.4 4.809-13.2 13.111c-3.21 5.534-4.81 11.62-4.81 18.262 0 6.641 1.6 12.729 4.81 18.262q4.8 8.301 13.14 13.108c5.57 3.207 11.74 4.81 18.54 4.81 6.79 0 12.97-1.619 18.53-4.866m-.52-30.111c-1.81 2.482-4.38 4.293-7.7 5.438l10.89 16.487h-6.26l-10.08-15.457c-.62.076-1.5.115-2.66.115h-12.05v15.342h-6.02v-46.257h18.07c5.71 0 10.23 1.375 13.55 4.124q4.98 4.121 4.98 11.22c.01 3.512-.9 6.508-2.72 8.988m-6.6-1.203q3.42-2.747 3.42-7.787 0-4.922-3.42-7.614c-2.28-1.793-5.46-2.692-9.56-2.692h-11.81v20.839h11.81c4.1.002 7.28-.913 9.56-2.746M535.045 517.967v-98h35.14q12.32 0 21.14 3.92t13.58 11.34q4.76 7.28 4.76 17.78 0 10.22-4.76 17.64t-13.58 11.34-21.14 3.92h-31.22l3.22-3.36v35.42zm7.14-35-3.22-3.5h31.22q15.82 0 23.94-6.86 8.26-7 8.26-19.6 0-12.74-8.26-19.6-8.12-7-23.94-7h-31.22l3.22-3.5zM629.192 517.967v-73.08h6.72v20.02l-.7-2.24q3.08-8.82 10.36-13.58t18.2-4.76v6.86h-.84q-.42-.14-.84-.14-12.18 0-19.04 7.7-6.86 7.56-6.86 21.14v38.08zM683.059 517.967v-73.08h7v73.08zm3.5-90.86q-2.38 0-4.06-1.68t-1.68-3.92q0-2.38 1.68-4.06t4.06-1.68q2.52 0 4.06 1.68 1.68 1.54 1.68 3.92t-1.68 4.06q-1.54 1.68-4.06 1.68M738.043 517.967l-32.9-73.08h7.42l30.8 69.16h-3.36l31.08-69.16h7.14l-33.04 73.08zM837.401 517.967v-16.66l-.28-2.52v-27.44q0-10.22-5.6-15.54-5.46-5.32-16.1-5.32-7.56 0-14.14 2.66-6.44 2.52-11.06 6.58l-3.5-5.04q5.46-4.9 13.16-7.56 7.7-2.8 16.1-2.8 13.58 0 20.86 6.86t7.28 20.44v46.34zm-26.32.56q-8.12 0-14.14-2.52-5.88-2.66-9.1-7.42-3.08-4.76-3.08-10.92 0-5.6 2.52-10.08 2.66-4.62 8.68-7.42 6.02-2.94 16.1-2.94h26.88v5.46h-26.74q-11.34 0-15.96 4.2-4.48 4.2-4.48 10.5 0 7 5.32 11.2t14.98 4.2q9.24 0 15.54-4.2 6.44-4.2 9.52-12.18l1.96 4.76q-2.94 7.98-10.08 12.74-7 4.62-17.92 4.62M901.942 518.527q-10.64 0-19.04-4.76-8.26-4.76-13.16-13.16-4.76-8.4-4.76-19.18 0-10.92 4.76-19.32 4.9-8.4 13.16-13.02 8.4-4.76 19.04-4.76 8.82 0 15.96 3.36 7.28 3.36 11.76 10.08l-5.18 3.78q-3.92-5.6-9.8-8.26t-12.74-2.66q-8.54 0-15.4 3.92-6.72 3.78-10.64 10.78-3.78 6.86-3.78 16.1t3.78 16.24q3.92 6.86 10.64 10.78 6.86 3.78 15.4 3.78 6.86 0 12.74-2.66t9.8-8.26l5.18 3.78q-4.48 6.72-11.76 10.08-7.14 3.36-15.96 3.36M947.707 545.687q-5.04 0-9.52-1.68-4.34-1.68-7.42-4.9l3.5-5.32q2.8 2.94 6.02 4.34 3.36 1.4 7.56 1.4 5.04 0 8.82-2.8 3.92-2.8 7.28-10.22l5.04-11.2.98-1.26 30.943-69.16h7.14l-37.523 83.02q-2.94 6.72-6.44 10.5-3.36 3.92-7.42 5.6t-8.96 1.68m21.14-25.9-33.88-74.9h7.42l30.8 68.74zM1150.31 444.327c5.88 0 10.97 1.167 15.26 3.5 4.39 2.24 7.79 5.693 10.22 10.36 2.43 4.573 3.64 10.267 3.64 17.08v42.7h-7v-42.14c0-8.213-2.01-14.467-6.02-18.76q-6.015-6.44-16.8-6.44-8.265 0-14.28 3.5t-9.24 9.8c-2.15 4.2-3.22 9.24-3.22 15.12v38.92h-7v-42.14c0-8.213-2.01-14.467-6.02-18.76q-6.015-6.44-16.8-6.44-8.265 0-14.28 3.5t-9.24 9.8c-2.15 4.2-3.22 9.24-3.22 15.12v38.92h-7v-73.08h6.72v20.16l-.98-2.24c2.15-5.693 5.74-10.173 10.78-13.44 5.04-3.36 11.11-5.04 18.2-5.04 7.28 0 13.39 1.867 18.34 5.6 5.04 3.64 8.21 9.1 9.52 16.38l-2.38-.98c1.96-6.253 5.65-11.293 11.06-15.12q8.115-5.88 19.74-5.88M1254.39 517.967v-16.66l-.28-2.52v-27.44c0-6.813-1.86-11.993-5.6-15.54-3.64-3.547-9-5.32-16.1-5.32-5.04 0-9.75.887-14.14 2.66-4.29 1.68-7.98 3.873-11.06 6.58l-3.5-5.04c3.64-3.267 8.03-5.787 13.16-7.56 5.14-1.867 10.5-2.8 16.1-2.8 9.06 0 16.01 2.287 20.86 6.86 4.86 4.573 7.28 11.387 7.28 20.44v46.34zm-26.32.56c-5.41 0-10.12-.84-14.14-2.52-3.92-1.773-6.95-4.247-9.1-7.42-2.05-3.173-3.08-6.813-3.08-10.92q0-5.6 2.52-10.08c1.78-3.08 4.67-5.553 8.68-7.42 4.02-1.96 9.38-2.94 16.1-2.94h26.88v5.46h-26.74q-11.34 0-15.96 4.2c-2.98 2.8-4.48 6.3-4.48 10.5 0 4.667 1.78 8.4 5.32 11.2 3.55 2.8 8.54 4.2 14.98 4.2q9.24 0 15.54-4.2c4.3-2.8 7.47-6.86 9.52-12.18l1.96 4.76q-2.94 7.98-10.08 12.74c-4.66 3.08-10.64 4.62-17.92 4.62M1311.23 518.527c-6.44 0-11.38-1.773-14.84-5.32q-5.04-5.32-5.04-14.56v-69.72h7v69.02c0 4.667 1.17 8.26 3.5 10.78q3.51 3.78 10.08 3.78 6.87 0 11.34-4.06l2.94 4.9c-1.86 1.773-4.15 3.08-6.86 3.92-2.61.84-5.32 1.26-8.12 1.26m-33.32-67.62v-6.02h43.68v6.02zM1365.1 518.527c-6.44 0-11.39-1.773-14.84-5.32q-5.04-5.32-5.04-14.56v-69.72h7v69.02c0 4.667 1.17 8.26 3.5 10.78q3.495 3.78 10.08 3.78 6.855 0 11.34-4.06l2.94 4.9c-1.87 1.773-4.15 3.08-6.86 3.92-2.61.84-5.32 1.26-8.12 1.26m-33.32-67.62v-6.02h43.68v6.02zM1426.68 518.527c-7.37 0-13.9-1.587-19.6-4.76-5.6-3.173-10.03-7.56-13.3-13.16-3.17-5.6-4.76-11.993-4.76-19.18 0-7.28 1.5-13.673 4.48-19.18q4.62-8.4 12.6-13.16c5.32-3.173 11.3-4.76 17.92-4.76 6.63 0 12.56 1.54 17.78 4.62 5.32 3.08 9.48 7.42 12.46 13.02q4.62 8.26 4.62 19.18c0 .28-.04.607-.14.98v.98h-64.54v-5.46h60.76l-2.8 2.66c.1-5.693-1.12-10.78-3.64-15.26-2.42-4.573-5.74-8.12-9.94-10.64-4.2-2.613-9.05-3.92-14.56-3.92-5.41 0-10.26 1.307-14.56 3.92-4.2 2.52-7.51 6.067-9.94 10.64-2.42 4.48-3.64 9.613-3.64 15.4v1.26c0 5.973 1.31 11.293 3.92 15.96 2.71 4.573 6.4 8.167 11.06 10.78q7.005 3.78 15.96 3.78 7.005 0 13.02-2.52c4.11-1.68 7.56-4.247 10.36-7.7l4.06 4.62c-3.17 3.92-7.18 6.907-12.04 8.96q-7.14 2.94-15.54 2.94M1480.54 517.967v-73.08h6.72v20.02l-.7-2.24c2.05-5.88 5.51-10.407 10.36-13.58s10.92-4.76 18.2-4.76v6.86h-.84q-.42-.14-.84-.14c-8.12 0-14.47 2.567-19.04 7.7-4.57 5.04-6.86 12.087-6.86 21.14v38.08zM1553.71 518.527c-6.07 0-11.76-.887-17.08-2.66q-7.845-2.66-12.18-6.72l3.22-5.6c2.8 2.427 6.53 4.527 11.2 6.3q6.99 2.52 15.12 2.52c7.65 0 13.16-1.26 16.52-3.78q5.04-3.78 5.04-9.94c0-2.987-.89-5.32-2.66-7-1.68-1.773-3.97-3.127-6.86-4.06-2.9-.933-6.07-1.68-9.52-2.24-3.46-.653-6.91-1.353-10.36-2.1-3.46-.747-6.63-1.82-9.52-3.22-2.9-1.4-5.23-3.313-7-5.74q-2.52-3.78-2.52-9.94c0-3.733 1.02-7.093 3.08-10.08q3.075-4.48 9.24-7.14c4.1-1.867 9.24-2.8 15.4-2.8 4.57 0 9.14.653 13.72 1.96q6.99 1.96 11.34 5.18l-3.22 5.6c-3.08-2.333-6.54-4.013-10.36-5.04a44.7 44.7 0 0 0-11.62-1.54c-7.1 0-12.32 1.307-15.68 3.92-3.27 2.613-4.9 5.88-4.9 9.8q0 4.62 2.52 7.42c1.77 1.773 4.1 3.173 7 4.2 2.89.933 6.06 1.727 9.52 2.38 3.45.56 6.9 1.213 10.36 1.96 3.45.747 6.62 1.82 9.52 3.22 2.89 1.307 5.18 3.173 6.86 5.6 1.77 2.333 2.66 5.507 2.66 9.52q0 6.02-3.36 10.5-3.225 4.48-9.66 7c-4.3 1.68-9.57 2.52-15.82 2.52"/></svg>