<svg xmlns="http://www.w3.org/2000/svg" style="display: none;">
<symbol id="paradox-institute" viewBox="0 0 224 29"><path fill="#fff" d="M214.274 14.394C219.935 12.372 224 6.96 224 .616h-6.616c0 4.416-3.593 8.01-8.01 8.01s-8.014-3.594-8.014-8.01h-6.616c0 6.347 4.065 11.76 9.726 13.778-5.661 2.022-9.726 7.435-9.726 13.779h6.616c0-4.417 3.594-8.01 8.014-8.01 4.421 0 8.01 3.593 8.01 8.01H224c0-6.348-4.065-11.76-9.726-13.779M146.085.637h-16.292v27.548h16.292c7.597 0 13.774-6.178 13.774-13.774S153.682.637 146.085.637m0 20.932h-9.676V7.253h9.676c3.945 0 7.158 3.209 7.158 7.158a7.163 7.163 0 0 1-7.158 7.158M179.8 0h-3.155c-7.932 0-14.382 6.45-14.382 14.382 0 7.93 6.45 14.382 14.382 14.382h3.155c7.931 0 14.382-6.451 14.382-14.382S187.731 0 179.8 0m0 22.148h-3.155c-4.28 0-7.766-3.482-7.766-7.766s3.482-7.766 7.766-7.766h3.155c4.28 0 7.766 3.482 7.766 7.766s-3.482 7.766-7.766 7.766M111.21 0c-8.068 0-14.626 6.562-14.626 14.626v13.55h6.616v-8.01h16.024v8.01h6.616v-13.55C125.836 6.562 119.273 0 111.21 0m0 6.616c4.052 0 7.402 3.027 7.931 6.935h-15.862c.529-3.908 3.879-6.935 7.931-6.935M45.577 0c-8.067 0-14.63 6.562-14.63 14.63v13.55h6.616v-8.01h16.024v8.01h6.616V14.63C60.203 6.562 53.641 0 45.577 0m0 6.616c4.053 0 7.402 3.027 7.932 6.935H37.646c.53-3.908 3.879-6.935 7.931-6.935M93.015 10.45c0-5.422-4.408-9.83-9.829-9.83H64.19v27.56h6.617v-7.897h7.464c4.552 0 8.253 3.543 8.253 7.898h6.617c0-3.825-1.526-7.307-4.012-9.904 2.362-1.799 3.892-4.635 3.892-7.828zm-22.21 3.212v-6.43h12.381a3.216 3.216 0 0 1 3.213 3.213 3.22 3.22 0 0 1-3.213 3.213h-12.38zM18.997.62H0v27.56h6.616v-7.897h12.38c5.422 0 9.83-4.408 9.83-9.83 0-5.42-4.408-9.833-9.83-9.833m0 13.047H6.617v-6.43h12.38a3.216 3.216 0 0 1 3.213 3.212 3.22 3.22 0 0 1-3.213 3.213z"/></symbol>
<symbol id="votelab" viewBox="0 0 200 200"><path d="m876 1989c-214-28-404-119-563-272-306-293-392-715-227-1109 64-155 208-331 347-427 240-165 563-217 843-136 453 132 756 573 714 1039-10 107-15 132-47 230l-25 78-33-33c-18-19-169-185-337-369-167-184-354-388-414-454-60-65-119-132-132-147-13-16-27-29-31-29-5 0-58 57-118 127-102 119-286 330-492 567-47 54-96 111-108 126l-22 27 140 124c77 68 144 124 148 124 7 0 145-157 359-408 41-48 78-87 82-87 5 0 20 15 35 33 32 37 124 140 350 387 88 96 197 216 243 266l82 92-53 40c-157 121-317 188-511 212-92 11-132 11-230-1z" transform="matrix(.1 0 0 -.1 0 200)"/></symbol>
<symbol id="horiz" viewBox="0 0 32 32"><rect width="32" height="32" fill="#6b4bcc" rx="7.121" transform="matrix(1 0 0 -1 0 32)"/><path fill="#fff" d="M13.943 17.799c1.054 0 1.896-.764 1.896-1.803s-.842-1.803-1.896-1.803c-1.023 0-1.896.764-1.896 1.803s.873 1.803 1.896 1.803M20.958 17.22v7.926c0 .787.596 1.42 1.37 1.42.806 0 1.402-.633 1.402-1.42V6.843c0-.786-.596-1.42-1.402-1.42-.774 0-1.37.634-1.37 1.42zM11.038 14.647V6.842c0-.786-.597-1.42-1.402-1.42-.772-.003-1.368.634-1.368 1.42v18.303c0 .786.596 1.42 1.37 1.42.806 0 1.402-.634 1.402-1.42V14.647z"/></symbol>
<symbol id="sfbx" viewBox="0 0 1583 654"><path fill="#364657" d="M325.247 217.32h76.328v-5.295C401.348 94.885 311.749 0 201.25 0S1.154 94.886.926 212.025c0 0-10.267 132.702 72.823 176.75l3.426-176.75c.24-68.68 55.695-124.283 124.075-124.283s123.834 55.603 124.073 124.283zM330.79 261.315l-3.426 176.749c-.239 68.68-58.662 128.02-127.04 128.02-68.377 0-123.833-55.604-124.072-124.284l.173-12.045H0V441.8c.227 117.14 89.826 212.025 200.324 212.025s204.113-93.583 204.339-210.723c-.002.002 10.134-119.076-73.873-181.787"/><path fill="#364657" d="M201.048 286.494c52.634 0 95.302-40.284 95.302-89.977 0-49.692-42.668-89.976-95.302-89.976s-95.303 40.284-95.303 89.976 42.668 89.977 95.303 89.977"/><path fill="#364657" stroke="#364657" stroke-miterlimit="10" stroke-width="3" d="M558.189 361.59q-14.976-5.173-23.144-13.662l6.074-11.799q7.96 7.87 21.154 12.732a78.1 78.1 0 0 0 27.227 4.864c13.125 0 22.966-2.381 29.532-7.142q9.843-7.141 9.843-18.527 0-8.692-5.34-13.868-5.344-5.173-13.09-7.97-7.75-2.792-21.574-6.106-16.546-4.139-26.39-7.97-9.846-3.827-16.861-11.695-7.018-7.865-7.016-21.321 0-10.971 5.866-19.976 5.863-9.003 18.011-14.387 12.145-5.384 30.161-5.384a89.8 89.8 0 0 1 24.611 3.415q12.04 3.417 20.838 9.42l-5.236 12.212q-9.217-6.001-19.688-9.004-10.475-3-20.525-3-19.27.001-29.009 7.348-9.738 7.35-9.739 18.94 0 8.695 5.341 13.973 5.343 5.279 13.404 8.073 8.06 2.797 21.679 6.106 16.125 3.936 26.075 7.762c6.629 2.556 12.252 6.417 16.861 11.592q6.91 7.765 6.911 21.013c0 7.315-1.99 13.971-5.969 19.976q-5.969 9.004-18.326 14.284-12.36 5.278-30.37 5.278-16.337-.002-31.311-5.177ZM693.382 233.869v56.926H769.2v13.249h-75.818v61.479h-15.499V220.621h100.533v13.248h-85.034ZM925.132 303.111q7.854 9.214 7.853 23.702-.002 18.63-13.925 28.669-13.935 10.04-41.157 10.039h-67.442V220.619h63.252q24.505 0 38.014 9.729 13.508 9.732 13.507 27.532-.001 12.006-5.97 20.39c-3.978 5.589-9.461 9.763-16.44 12.524 9.633 2.069 17.071 6.178 22.308 12.317Zm-99.173-69.864v52.579h46.704q17.803.001 27.438-6.728 9.637-6.724 9.636-19.562 0-12.833-9.636-19.563c-6.422-4.482-15.57-6.728-27.438-6.728h-46.704zm81.474 113.025q10.05-6.623 10.052-20.699-.002-27.118-39.796-27.119h-51.732v54.443h51.732c13.126-.002 23.041-2.207 29.744-6.625ZM1058.23 365.523l-47.33-63.757-47.124 63.757h-17.803l55.707-74.522-52.146-70.38h17.803l44.193 59.202 43.98-59.202h16.76l-51.95 69.966 55.93 74.936z"/><path fill="#364657" d="M1138.35 172.404c6.21 3.511 11.1 8.339 14.65 14.484s5.33 12.957 5.33 20.438c0 7.482-1.82 14.331-5.45 20.552q-5.445 9.334-14.82 14.712c-6.26 3.588-13.17 5.382-20.74 5.382s-14.46-1.794-20.68-5.382c-6.22-3.586-11.12-8.472-14.71-14.655s-5.39-12.976-5.39-20.38 1.8-14.198 5.39-20.38c3.59-6.183 8.51-11.066 14.77-14.656 6.26-3.586 13.2-5.381 20.85-5.381 7.65-.002 14.58 1.754 20.8 5.266m-2.5 66.463c5.57-3.243 9.97-7.631 13.21-13.168 3.25-5.532 4.87-11.659 4.87-18.377 0-6.716-1.59-12.804-4.75-18.262-3.17-5.455-7.51-9.769-13.03-12.937q-8.295-4.75-18.6-4.751c-6.87 0-13.11 1.603-18.71 4.808q-8.4 4.809-13.2 13.111c-3.21 5.534-4.81 11.62-4.81 18.262 0 6.641 1.6 12.729 4.81 18.262q4.8 8.301 13.14 13.108c5.57 3.207 11.74 4.81 18.54 4.81 6.79 0 12.97-1.619 18.53-4.866m-.52-30.111c-1.81 2.482-4.38 4.293-7.7 5.438l10.89 16.487h-6.26l-10.08-15.457c-.62.076-1.5.115-2.66.115h-12.05v15.342h-6.02v-46.257h18.07c5.71 0 10.23 1.375 13.55 4.124q4.98 4.121 4.98 11.22c.01 3.512-.9 6.508-2.72 8.988m-6.6-1.203q3.42-2.747 3.42-7.787 0-4.922-3.42-7.614c-2.28-1.793-5.46-2.692-9.56-2.692h-11.81v20.839h11.81c4.1.002 7.28-.913 9.56-2.746M535.045 517.967v-98h35.14q12.32 0 21.14 3.92t13.58 11.34q4.76 7.28 4.76 17.78 0 10.22-4.76 17.64t-13.58 11.34-21.14 3.92h-31.22l3.22-3.36v35.42zm7.14-35-3.22-3.5h31.22q15.82 0 23.94-6.86 8.26-7 8.26-19.6 0-12.74-8.26-19.6-8.12-7-23.94-7h-31.22l3.22-3.5zM629.192 517.967v-73.08h6.72v20.02l-.7-2.24q3.08-8.82 10.36-13.58t18.2-4.76v6.86h-.84q-.42-.14-.84-.14-12.18 0-19.04 7.7-6.86 7.56-6.86 21.14v38.08zM683.059 517.967v-73.08h7v73.08zm3.5-90.86q-2.38 0-4.06-1.68t-1.68-3.92q0-2.38 1.68-4.06t4.06-1.68q2.52 0 4.06 1.68 1.68 1.54 1.68 3.92t-1.68 4.06q-1.54 1.68-4.06 1.68M738.043 517.967l-32.9-73.08h7.42l30.8 69.16h-3.36l31.08-69.16h7.14l-33.04 73.08zM837.401 517.967v-16.66l-.28-2.52v-27.44q0-10.22-5.6-15.54-5.46-5.32-16.1-5.32-7.56 0-14.14 2.66-6.44 2.52-11.06 6.58l-3.5-5.04q5.46-4.9 13.16-7.56 7.7-2.8 16.1-2.8 13.58 0 20.86 6.86t7.28 20.44v46.34zm-26.32.56q-8.12 0-14.14-2.52-5.88-2.66-9.1-7.42-3.08-4.76-3.08-10.92 0-5.6 2.52-10.08 2.66-4.62 8.68-7.42 6.02-2.94 16.1-2.94h26.88v5.46h-26.74q-11.34 0-15.96 4.2-4.48 4.2-4.48 10.5 0 7 5.32 11.2t14.98 4.2q9.24 0 15.54-4.2 6.44-4.2 9.52-12.18l1.96 4.76q-2.94 7.98-10.08 12.74-7 4.62-17.92 4.62M901.942 518.527q-10.64 0-19.04-4.76-8.26-4.76-13.16-13.16-4.76-8.4-4.76-19.18 0-10.92 4.76-19.32 4.9-8.4 13.16-13.02 8.4-4.76 19.04-4.76 8.82 0 15.96 3.36 7.28 3.36 11.76 10.08l-5.18 3.78q-3.92-5.6-9.8-8.26t-12.74-2.66q-8.54 0-15.4 3.92-6.72 3.78-10.64 10.78-3.78 6.86-3.78 16.1t3.78 16.24q3.92 6.86 10.64 10.78 6.86 3.78 15.4 3.78 6.86 0 12.74-2.66t9.8-8.26l5.18 3.78q-4.48 6.72-11.76 10.08-7.14 3.36-15.96 3.36M947.707 545.687q-5.04 0-9.52-1.68-4.34-1.68-7.42-4.9l3.5-5.32q2.8 2.94 6.02 4.34 3.36 1.4 7.56 1.4 5.04 0 8.82-2.8 3.92-2.8 7.28-10.22l5.04-11.2.98-1.26 30.943-69.16h7.14l-37.523 83.02q-2.94 6.72-6.44 10.5-3.36 3.92-7.42 5.6t-8.96 1.68m21.14-25.9-33.88-74.9h7.42l30.8 68.74zM1150.31 444.327c5.88 0 10.97 1.167 15.26 3.5 4.39 2.24 7.79 5.693 10.22 10.36 2.43 4.573 3.64 10.267 3.64 17.08v42.7h-7v-42.14c0-8.213-2.01-14.467-6.02-18.76q-6.015-6.44-16.8-6.44-8.265 0-14.28 3.5t-9.24 9.8c-2.15 4.2-3.22 9.24-3.22 15.12v38.92h-7v-42.14c0-8.213-2.01-14.467-6.02-18.76q-6.015-6.44-16.8-6.44-8.265 0-14.28 3.5t-9.24 9.8c-2.15 4.2-3.22 9.24-3.22 15.12v38.92h-7v-73.08h6.72v20.16l-.98-2.24c2.15-5.693 5.74-10.173 10.78-13.44 5.04-3.36 11.11-5.04 18.2-5.04 7.28 0 13.39 1.867 18.34 5.6 5.04 3.64 8.21 9.1 9.52 16.38l-2.38-.98c1.96-6.253 5.65-11.293 11.06-15.12q8.115-5.88 19.74-5.88M1254.39 517.967v-16.66l-.28-2.52v-27.44c0-6.813-1.86-11.993-5.6-15.54-3.64-3.547-9-5.32-16.1-5.32-5.04 0-9.75.887-14.14 2.66-4.29 1.68-7.98 3.873-11.06 6.58l-3.5-5.04c3.64-3.267 8.03-5.787 13.16-7.56 5.14-1.867 10.5-2.8 16.1-2.8 9.06 0 16.01 2.287 20.86 6.86 4.86 4.573 7.28 11.387 7.28 20.44v46.34zm-26.32.56c-5.41 0-10.12-.84-14.14-2.52-3.92-1.773-6.95-4.247-9.1-7.42-2.05-3.173-3.08-6.813-3.08-10.92q0-5.6 2.52-10.08c1.78-3.08 4.67-5.553 8.68-7.42 4.02-1.96 9.38-2.94 16.1-2.94h26.88v5.46h-26.74q-11.34 0-15.96 4.2c-2.98 2.8-4.48 6.3-4.48 10.5 0 4.667 1.78 8.4 5.32 11.2 3.55 2.8 8.54 4.2 14.98 4.2q9.24 0 15.54-4.2c4.3-2.8 7.47-6.86 9.52-12.18l1.96 4.76q-2.94 7.98-10.08 12.74c-4.66 3.08-10.64 4.62-17.92 4.62M1311.23 518.527c-6.44 0-11.38-1.773-14.84-5.32q-5.04-5.32-5.04-14.56v-69.72h7v69.02c0 4.667 1.17 8.26 3.5 10.78q3.51 3.78 10.08 3.78 6.87 0 11.34-4.06l2.94 4.9c-1.86 1.773-4.15 3.08-6.86 3.92-2.61.84-5.32 1.26-8.12 1.26m-33.32-67.62v-6.02h43.68v6.02zM1365.1 518.527c-6.44 0-11.39-1.773-14.84-5.32q-5.04-5.32-5.04-14.56v-69.72h7v69.02c0 4.667 1.17 8.26 3.5 10.78q3.495 3.78 10.08 3.78 6.855 0 11.34-4.06l2.94 4.9c-1.87 1.773-4.15 3.08-6.86 3.92-2.61.84-5.32 1.26-8.12 1.26m-33.32-67.62v-6.02h43.68v6.02zM1426.68 518.527c-7.37 0-13.9-1.587-19.6-4.76-5.6-3.173-10.03-7.56-13.3-13.16-3.17-5.6-4.76-11.993-4.76-19.18 0-7.28 1.5-13.673 4.48-19.18q4.62-8.4 12.6-13.16c5.32-3.173 11.3-4.76 17.92-4.76 6.63 0 12.56 1.54 17.78 4.62 5.32 3.08 9.48 7.42 12.46 13.02q4.62 8.26 4.62 19.18c0 .28-.04.607-.14.98v.98h-64.54v-5.46h60.76l-2.8 2.66c.1-5.693-1.12-10.78-3.64-15.26-2.42-4.573-5.74-8.12-9.94-10.64-4.2-2.613-9.05-3.92-14.56-3.92-5.41 0-10.26 1.307-14.56 3.92-4.2 2.52-7.51 6.067-9.94 10.64-2.42 4.48-3.64 9.613-3.64 15.4v1.26c0 5.973 1.31 11.293 3.92 15.96 2.71 4.573 6.4 8.167 11.06 10.78q7.005 3.78 15.96 3.78 7.005 0 13.02-2.52c4.11-1.68 7.56-4.247 10.36-7.7l4.06 4.62c-3.17 3.92-7.18 6.907-12.04 8.96q-7.14 2.94-15.54 2.94M1480.54 517.967v-73.08h6.72v20.02l-.7-2.24c2.05-5.88 5.51-10.407 10.36-13.58s10.92-4.76 18.2-4.76v6.86h-.84q-.42-.14-.84-.14c-8.12 0-14.47 2.567-19.04 7.7-4.57 5.04-6.86 12.087-6.86 21.14v38.08zM1553.71 518.527c-6.07 0-11.76-.887-17.08-2.66q-7.845-2.66-12.18-6.72l3.22-5.6c2.8 2.427 6.53 4.527 11.2 6.3q6.99 2.52 15.12 2.52c7.65 0 13.16-1.26 16.52-3.78q5.04-3.78 5.04-9.94c0-2.987-.89-5.32-2.66-7-1.68-1.773-3.97-3.127-6.86-4.06-2.9-.933-6.07-1.68-9.52-2.24-3.46-.653-6.91-1.353-10.36-2.1-3.46-.747-6.63-1.82-9.52-3.22-2.9-1.4-5.23-3.313-7-5.74q-2.52-3.78-2.52-9.94c0-3.733 1.02-7.093 3.08-10.08q3.075-4.48 9.24-7.14c4.1-1.867 9.24-2.8 15.4-2.8 4.57 0 9.14.653 13.72 1.96q6.99 1.96 11.34 5.18l-3.22 5.6c-3.08-2.333-6.54-4.013-10.36-5.04a44.7 44.7 0 0 0-11.62-1.54c-7.1 0-12.32 1.307-15.68 3.92-3.27 2.613-4.9 5.88-4.9 9.8q0 4.62 2.52 7.42c1.77 1.773 4.1 3.173 7 4.2 2.89.933 6.06 1.727 9.52 2.38 3.45.56 6.9 1.213 10.36 1.96 3.45.747 6.62 1.82 9.52 3.22 2.89 1.307 5.18 3.173 6.86 5.6 1.77 2.333 2.66 5.507 2.66 9.52q0 6.02-3.36 10.5-3.225 4.48-9.66 7c-4.3 1.68-9.57 2.52-15.82 2.52"/></symbol>
<symbol id="asobo" viewBox="0 0 3962 1278"><path d="M670 15.9c-1.4.4-9.4 1.1-17.9 1.5-69.8 3.1-141.6 17.8-199.6 40.7-30 11.9-66.2 31.3-89.9 48.1-33.8 24-68.5 57.5-93.1 89.8-34.2 45.1-61.1 102.1-77.5 164.7l-1.1 4.3-94.9.2-94.9.3L11.2 381c5.6 8.5 25.4 39.3 44.1 68.5 18.7 29.1 35.4 54.8 37 57 1.7 2.2 3.2 4.1 3.3 4.3s17.5.3 38.8.2H173v27.7c0 48.1 3.6 90.9 12.6 149.8 6.6 43 20.6 107.2 26.9 123.7l2.6 6.6 11.2-5.3c6.2-2.9 36.5-17.8 67.4-33.1l56.1-27.9-2.5-8c-4.6-15.2-15.4-75-20.8-115-5.2-40-8.5-80.4-8.5-106.1V511h169.8c93.3 0 172.7.3 176.5.7l6.7.6v117.5c0 93.5.3 117.3 1.3 116.9.6-.3 33.2-16.7 72.2-36.4l71-35.8.3-329.8L816 15l-71.7.1c-39.5 0-72.9.4-74.3.8m-26 249.3v74.3l-122.7-.3c-67.6-.1-125.9-.3-129.6-.5l-6.8-.2 7.8-13.3c13.9-23.9 31-45 48.7-59.9C487 227 547.1 203 623 193c7.4-1 15.2-1.9 17.3-1.9l3.7-.1zM1097 16c-60.3 4.1-113.5 31.6-153.2 79-27.6 32.9-45.1 73.5-49.8 115.5-1.4 12.8-1.2 44 .5 57.5 5.7 47.6 25.3 88.6 59.2 124 35.2 36.7 74.2 57.1 125.8 65.7 10.2 1.7 17.4 1.8 95.5 1.4 90-.3 95.9-.1 113.9 4.5 17.4 4.4 34.9 14.8 42.6 25.2 8.4 11.5 14.6 26.7 16.7 40.8 1 7 .9 9.7-.4 17.1-2.2 12.4-5.1 19.3-11.8 28.1-13.8 18.3-43.2 36.8-95 59.7-23.8 10.6-105 48.1-179.5 83-37 17.3-137.1 63.7-142 65.8-3.3 1.4-10.8 4.9-16.8 7.6L892 796l.2 81.8.3 81.8 14.5-6.7c8-3.7 26.2-12.2 40.5-18.9 26.6-12.5 130.2-60.9 195.5-91.2 20.1-9.4 68.7-31.8 108-50 82.7-38.1 98-45.4 112.7-53.8 16.3-9.3 34.9-21.9 47-31.9 12-9.8 36.4-34.3 43.5-43.6 20.5-27 33.3-57.2 38.5-91 2.4-15.6 2.4-54.6 0-70.9-7.2-48.5-28.8-89.4-66.3-125.6-33.4-32.2-73.1-51.2-124.4-59.6-9.1-1.5-22.4-1.8-102-2.4-98.4-.7-95.8-.6-112.1-6-6.6-2.3-17.2-8.2-23.2-12.9-11.9-9.6-22.5-30.3-25.7-50.2-1.1-6.6-1-8.8.4-15.9 8.1-39.8 34.3-63.5 73.9-67 6.9-.6 80.1-1 190-1 98.3 0 178.7-.2 178.7-.5 0-.2-13.6-21.1-30.2-46.2-16.5-25.2-36.8-56.1-45.1-68.7-8.2-12.7-16.3-24.7-18.1-26.8l-3.1-3.8-139 .2c-76.4 0-143.7.4-149.5.8M2285.7 18.2c.4.7 3.3 5.5 6.5 10.7 3.1 5.1 23.8 37.4 46 71.7l40.3 62.4h69.5v814.9l7.3-3.3c3.9-1.9 34-15.5 66.7-30.4 219.1-99.3 340-153.7 396.5-178.2 33.7-14.6 36.8-16 50.5-23.3 52-27.7 93.2-67.4 113.6-109.2 14.9-30.7 21.6-66.7 20-107.4-1.8-48.5-15.6-88.4-42.7-124.3-11.7-15.4-34.2-37.2-54.2-52.3l-2.6-2 5.8-11.7c15.3-30.6 22.1-60.8 22.1-97.6 0-66.1-20.1-114.8-65.1-157.6C2925 41.7 2875.9 22 2810 18c-26.2-1.6-525.3-1.4-524.3.2M2790 163c33.3 2.4 56 9.1 71.8 21.2 12.4 9.6 23.2 33.6 23.2 51.7 0 17.5-10 41.2-21.1 50.3-13.3 10.8-32.5 17.9-59 21.8-11.3 1.7-18.8 2-47.6 2H2723v146h76.3c61.1 0 78.1.3 85.7 1.4 34.4 5.2 60.4 27.5 69.6 59.6 2.9 10.1 2.7 31-.4 41-5.3 17.1-14.5 28.2-34.3 41.2-21.9 14.6-30 18.6-87.9 43.8-51 22.2-130.1 57.2-216 95.7-8 3.6-16.4 7.3-18.7 8.4l-4.3 1.8V162h91.3c51.2 0 97.6.5 105.7 1"/><path d="M1554 18.7c0 .4 2.3 4.3 5.2 8.7 2.8 4.5 6.7 10.6 8.6 13.6 2 3 20.6 31.8 41.5 63.9 20.8 32.1 38.1 59 38.4 59.7.2.7-2.3 4.8-5.8 9.1-9.4 11.8-23.3 33-32.5 49.6-19.2 34.5-33.5 74.3-40.8 113.7-5.4 28.7-6 36.8-6 77.5s.6 48.8 6 77.5c12.4 66.5 42.5 128.5 87.5 180.5 10.7 12.3 37.4 38.6 48.9 48.1 51.1 42.3 108.9 70.1 171.5 82.4 28.6 5.6 47.2 7.2 81.5 7.2 24.9 0 33.9-.3 48.9-2.1 75-8.8 142.2-37.1 200.3-84.3 13.9-11.3 40.8-37.6 53.5-52.3 52.9-61.3 83.8-133.9 91.8-216 2.2-21.8 1.6-71.9-.9-92.5-9.8-78.2-41.7-149.2-93.3-208-36.1-41.1-76.2-72.7-121.3-95.4-47-23.8-92.3-36.5-144.9-40.6-15.2-1.1-438.1-1.5-438.1-.3M1991.5 166c42.7 6.6 84.3 23.8 117.5 48.8 20.9 15.8 34.5 29.5 49.7 50.2 32.3 44 50.4 97.6 50.4 149.5 0 47.2-15.6 97.5-43 138.6-15.6 23.4-29.7 39.2-48.8 54.6-36.8 29.5-80.5 48.5-129.3 55.9-13.8 2.1-44.4 2.4-56.5.6-52.4-8.1-95.2-26.3-132.7-56.5-37.4-30-67.8-76.6-81.6-124.9-13.7-47.7-13.7-88.9 0-136.6 9-31.3 26.8-65.4 48.1-91.7 45.2-56 125-92.8 197.2-91 8.3.2 21.3 1.4 29 2.5M3162.6 22.1c1.4 2.3 22.6 35 47.1 72.7s44.7 69.1 45 69.8c.2.6-2.7 5.2-6.5 10.1-34.2 43.5-59.9 99.8-71.7 157-5.8 28.4-7 41.6-7 82.8 0 33.8.3 39.8 2.3 54.3 10.6 77.9 40.9 145.4 91.3 203.7 12.3 14.2 40.3 41.3 54.4 52.6 58.2 46.7 124.1 74.2 199.5 83.1 25.4 3 71 2.9 96.9-.1 75.3-8.9 142.2-37.1 201.1-84.9 13.6-11 48.2-45.7 59.2-59.2 47.2-58.3 75.2-124.3 84.5-199 1.4-11.5 1.8-21.9 1.8-50.5 0-38.9-1-51.5-6.1-78-10.1-51.9-30.8-101.6-60.2-144.5-25.7-37.5-63.3-75.8-100.7-102.5-57.8-41.3-124-65.2-195-70.5-9-.6-89.7-1-226.3-1H3160zM3582.3 164c52.4 5 101.4 24.7 141.7 57.1 52.6 42.2 87.6 111.4 91.9 181.6 1.7 29-3.9 64.9-15.1 95.8-8.9 24.7-26.1 55-43.2 76.1-31.5 39.1-83 70.8-135.9 83.8-20.3 5-35.6 6.9-56.2 7-19.5 0-25.5-.6-48-5-38.4-7.5-80.9-27.7-112.4-53.2-37.7-30.6-67.7-77.1-81.5-126.3-13-46.4-13-86.4 0-132.8 15.5-55.3 49.3-103.9 94.7-136.5 47.4-33.8 111.7-52.5 164-47.6M1080.5 1088.5c-13.5 2.5-23 7.3-31.6 15.8-9.9 9.9-13.9 20.4-13.9 36.4 0 17.4 4.1 28.1 15 39.3 7.6 7.8 13.4 11.2 37.6 22 23.7 10.6 29.4 15.4 29.4 24.7 0 6.5-2.5 10.9-7.9 14.1-4.3 2.5-5.3 2.7-16.6 2.7-16.8 0-26.4-3.5-44.8-16.2l-9.2-6.3-.3 18.7c-.1 10.3 0 19.3.2 20 .9 2.3 22.9 12.3 33.1 14.9 28.6 7.4 54.6 2.2 71.1-14.1 10.9-10.8 15.4-22.2 15.4-39 0-17.1-4.4-28.1-15.9-39.6-8.2-8.1-15.1-12.1-39.8-23.2-20.7-9.2-26.3-14-26.3-22.3 0-5.2 3-9.8 8.2-12.6 3.8-2 5.7-2.3 16.3-2.3 10.9.1 12.9.4 21.5 3.3 5.2 1.8 13.7 5.3 18.9 7.8 5.1 2.4 9.5 4.4 9.7 4.4s.4-8 .4-17.9v-17.8l-6.7-3c-21.5-9.6-45.2-13.3-63.8-9.8M2902.8 1088c-20.4 3.2-35.4 10.7-49 24.3-12 12-20.2 26-25.4 43.2-2.5 8.3-2.8 10.4-2.8 26.5-.1 15.3.2 18.6 2.2 26 8.1 29.5 29.2 53.9 55.2 63.6 33.6 12.7 71 6.1 95.6-16.9 22-20.5 32.5-46.6 31.1-77.2-1.2-24.7-9.6-44.6-26.5-62.6-17.5-18.6-35.4-26.5-62.2-27.4-6.9-.2-15.1 0-18.2.5m30.5 39.7c11.4 3.1 22.8 12.7 28.6 24 5.3 10.6 6.5 16.5 6.5 30.8 0 9.7-.4 14.5-1.8 18.9-5.5 18.2-17 30.7-32.9 35.8-8.7 2.8-23.8 2.8-32.7-.1-12.2-3.8-23.3-13.6-28.9-25.4-8.6-18.1-7.9-45.2 1.7-61.7 3.4-5.9 11.7-14.6 16.7-17.6 12.1-7 27.7-8.7 42.8-4.7M1375.5 1106.5v16.5h58.5v152h40v-152h59v-33h-157.5zM1759 1152.2c.6 70.6.5 69.6 8.7 86.8 8.7 18.1 25 30.8 46.8 36.2 11.9 2.9 35.9 3.2 47.8.6 23.1-5.2 39.3-17 48.2-35.2 9.1-18.4 8.9-16.5 9.3-87.9l.3-62.7H1880v56.8c0 61.8-.1 63.1-5.7 73.4-7.5 13.8-24.8 21.5-42.1 18.8-13.4-2.1-23.4-9.5-29.4-21.8l-3.3-6.7-.3-60.3-.3-60.2h-40.4zM2158 1182.5v92.6l44.3-.3c50.8-.5 52.6-.7 71.2-9.8 29.2-14.3 44.5-42.6 44.5-82.1 0-27.7-7.8-49.7-23.6-66.8-10.8-11.7-22.5-18.8-37.9-23.2-7.7-2.2-9.7-2.3-53.2-2.7l-45.3-.3zm79.2-58.1c26.7 5.7 41 28.2 39.5 62.1-.6 14.6-3.6 24.8-10.2 34.6-10.8 16-24.4 21.2-53.5 20.7l-15.5-.3-.3-58c-.1-31.9 0-58.6.3-59.3.7-1.8 30.9-1.6 39.7.2M2552 1182.5v92.5h40v-185h-40z"/></symbol>
<symbol id="parker-parker" viewBox="0 0 214.789 75.923"><defs><clipPath id="parker-parker-a"><path fill="none" d="M0 0h120.298v39.462H0z"/></clipPath><clipPath id="parker-parker-b"><path fill="none" d="M0 0h75.923v75.923H0z"/></clipPath></defs><g><g><g clip-path="url(#parker-parker-a)" transform="translate(94.491 18.23)"><path fill="#001e41" d="M1.789 10.825v6.072H0V.399h5.742a6.34 6.34 0 0 1 4.378 1.436 4.72 4.72 0 0 1 1.647 3.79 4.78 4.78 0 0 1-1.623 3.789 6.46 6.46 0 0 1-4.4 1.412Zm0-8.731v7.06H6c2.448 0 3.977-1.2 3.977-3.53 0-2.259-1.529-3.53-3.977-3.53Z"/><path fill="#001e41" d="m44.95 16.897-4.306-6.072h-3.93v6.072h-1.789V.399h5.742a6.34 6.34 0 0 1 4.378 1.436 4.72 4.72 0 0 1 1.647 3.79 4.91 4.91 0 0 1-4 4.99l4.4 6.283Zm-8.237-14.8v7.06h4.213c2.448 0 3.977-1.2 3.977-3.53 0-2.259-1.529-3.53-3.977-3.53Z"/><path fill="#001e41" d="M52.858 16.898V.4h1.812v9.531L62.366.4h2.095l-5.7 7.107 6.072 9.391h-2.161l-5.154-7.884-2.848 3.529v4.355Z"/><path fill="#001e41" d="M70.697 16.898V.4h10.8v1.695h-9.012v5.553h8.755v1.695h-8.755v5.86h9.014v1.695Z"/><path fill="#001e41" d="m98.608 16.897-4.306-6.072h-3.93v6.072h-1.789V.399h5.741a6.34 6.34 0 0 1 4.379 1.436 4.72 4.72 0 0 1 1.647 3.79 4.91 4.91 0 0 1-4 4.99l4.4 6.283Zm-8.237-14.8v7.06h4.213c2.448 0 3.977-1.2 3.977-3.53 0-2.259-1.529-3.53-3.977-3.53Z"/><path fill="#001e41" d="M21.84 0h-.212l-7.743 16.9h1.93l.99-2.184h-.014l1.48-3.323h-.005l.388-.853.372-.837h.009l2.691-5.912 2.576 5.661h.034l.657 1.521.192.422h-.01l1.38 3.194 1.074 2.311h1.954Z"/><path fill="#d3ff03" d="M8.827 28.8v-5.055H5.08V28.8H0v3.674h5.08v5.1h3.747v-5.1h5.008V28.8Z"/><path fill="#001e41" d="M114.557 33.392a6.46 6.46 0 0 1-4.4-1.412 4.78 4.78 0 0 1-1.623-3.788 4.72 4.72 0 0 1 1.648-3.788 6.33 6.33 0 0 1 4.375-1.434h5.743v16.492h-1.79v-6.07Zm-.257-8.729c-2.448 0-3.977 1.27-3.977 3.529 0 2.33 1.529 3.529 3.977 3.529h4.211v-7.058Z"/><path fill="#001e41" d="m73.209 39.462 4.4-6.283a4.91 4.91 0 0 1-4-4.988 4.72 4.72 0 0 1 1.648-3.788 6.33 6.33 0 0 1 4.376-1.434h5.742v16.493h-1.789v-6.07h-3.93l-4.305 6.07Zm6.165-14.8c-2.448 0-3.977 1.27-3.977 3.529 0 2.33 1.529 3.529 3.977 3.529h4.212v-7.057Z"/><path fill="#001e41" d="M65.629 39.462v-4.354l-2.848-3.528-5.152 7.882h-2.165l6.071-9.387-5.694-7.106h2.095l7.694 9.528v-9.529h1.811v16.494Z"/><path fill="#001e41" d="M38.801 39.462v-1.694h9.012v-5.859H39.06v-1.694h8.753v-5.553h-9.012v-1.694h10.8v16.494Z"/><path fill="#001e41" d="m19.551 39.462 4.4-6.283a4.91 4.91 0 0 1-4-4.988 4.72 4.72 0 0 1 1.648-3.788 6.33 6.33 0 0 1 4.376-1.434h5.744v16.493h-1.791v-6.07h-3.93l-4.305 6.07Zm6.165-14.8c-2.448 0-3.977 1.27-3.977 3.529 0 2.33 1.529 3.529 3.977 3.529h4.212v-7.057Z"/><path fill="#001e41" d="M98.581 22.564h-.212l-7.742 16.9h1.929l1.718-3.789.729-1.718 3.46-7.6 3.46 7.6.683 1.718 1.765 3.789h1.953Z"/></g></g><g><path fill="#d3ff03" d="M0 .001h75.923v75.923H0z"/><g><g fill="#001e41" clip-path="url(#parker-parker-b)"><path d="M35.186 21.101H24.761v1.808c.206 1.995 1.215 4.929 5.367 4.929h4.736c5.557 0 8.885 3.819 8.885 8.394s-3.328 8.393-8.885 8.393h-5.178v10.2h6.754v-3.67c9.579-.566 14.723-7.631 14.723-15 0-7.689-5.586-15.049-15.97-15.049"/><path d="M37.961 36.183a3.03 3.03 0 0 0-3.032-3.032h-4.8v6.064h4.8a3.03 3.03 0 0 0 3.032-3.031"/></g></g></g></g></symbol>
</svg>
