<svg height="200pt" preserveAspectRatio="xMidYMid meet" viewBox="0 0 200 200" width="200pt" xmlns="http://www.w3.org/2000/svg"><path d="m876 1989c-214-28-404-119-563-272-306-293-392-715-227-1109 64-155 208-331 347-427 240-165 563-217 843-136 453 132 756 573 714 1039-10 107-15 132-47 230l-25 78-33-33c-18-19-169-185-337-369-167-184-354-388-414-454-60-65-119-132-132-147-13-16-27-29-31-29-5 0-58 57-118 127-102 119-286 330-492 567-47 54-96 111-108 126l-22 27 140 124c77 68 144 124 148 124 7 0 145-157 359-408 41-48 78-87 82-87 5 0 20 15 35 33 32 37 124 140 350 387 88 96 197 216 243 266l82 92-53 40c-157 121-317 188-511 212-92 11-132 11-230-1z" transform="matrix(.1 0 0 -.1 0 200)"/></svg>