<svg font-family="'JetBrains Mono', 'Fira Code', Menlo, Consolas, monospace" viewBox="0 0 640 380" xmlns="http://www.w3.org/2000/svg" xmlns:xlink="http://www.w3.org/1999/xlink"><marker id="a" markerHeight="8" markerWidth="8" orient="auto" refX="8" refY="5" viewBox="0 0 10 10"><path d="m0 0 10 5-10 5z" fill="#a6da95"/></marker><rect fill="#1e1e2e" height="360" rx="10" stroke="#313244" width="620" x="10" y="10"/><rect fill="#181825" height="320" rx="4" width="580" x="30" y="30"/><g stroke="#313244" stroke-width=".5"><path d="m80 50v260"/><path d="m180 50v260"/><path d="m280 50v260"/><path d="m380 50v260"/><path d="m480 50v260"/><path d="m580 50v260"/><path d="m80 70h500"/><path d="m80 140h500"/><path d="m80 210h500"/><path d="m80 280h500"/></g><path d="m80 310h500" stroke="#6c7086" stroke-width="1.5"/><path d="m80 50v260" stroke="#6c7086" stroke-width="1.5"/><g font-size="13"><text fill="#cba6f7" text-anchor="end" x="580" y="335">quality</text><text dx="3" fill="#6c7086" x="580" y="335">→</text><text x="92" y="48"><tspan fill="#89b4fa">cost</tspan><tspan fill="#cdd6f4">(</tspan><tspan fill="#cba6f7">quality</tspan><tspan fill="#cdd6f4">)</tspan></text></g><path d="m110 80c40 150 110 210 190 225 60 10 100 11 130-3 50-22 100-62 150-122" fill="none" stroke="#89b4fa" stroke-linecap="round" stroke-width="3"/><circle cx="180" cy="195" fill="none" r="7" stroke="#ed8796" stroke-dasharray="3 3" stroke-width="2"/><path d="m180 195v115" opacity=".5" stroke="#ed8796" stroke-dasharray="2 4"/><text fill="#ed8796" font-size="12" text-anchor="middle" x="180" y="335">cost ↑</text><circle cx="210" cy="225" fill="#cdd6f4" opacity=".12" r="14"/><circle cx="210" cy="225" fill="#cdd6f4" r="10" stroke="#181825" stroke-width="2"/><path d="m210 225v85" opacity=".5" stroke="#cdd6f4" stroke-dasharray="2 4"/><circle cx="240" cy="252" fill="none" r="7" stroke="#a6da95" stroke-dasharray="3 3" stroke-width="2"/><path d="m240 252v58" opacity=".5" stroke="#a6da95" stroke-dasharray="2 4"/><text fill="#a6da95" font-size="12" text-anchor="middle" x="240" y="335">cost ↓</text><path d="m230 244 60 41" marker-end="url(#a)" stroke="#a6da95" stroke-linecap="round" stroke-width="3.5"/></svg>