<svg xmlns="http://www.w3.org/2000/svg" style="display: none;">
<symbol id="aws" viewBox="0 0 128 128"><path fill="#f90" d="M108.59 26.148c-1.852 0-3.622.211-5.305.715-1.684.504-3.117 1.223-4.379 2.188a10.829 10.829 0 0 0-3.031 3.453c-.757 1.348-1.137 2.906-1.137 4.676 0 2.187.716 4.25 2.106 6.105 1.386 1.895 3.66 3.324 6.734 4.293l6.106 1.895c2.062.675 3.496 1.391 4.254 2.191.757.801 1.136 1.765 1.136 2.945 0 1.726-.758 3.074-2.191 4-1.43.925-3.492 1.391-6.145 1.391-1.687 0-3.328-.168-5.011-.504a23.102 23.102 0 0 1-4.633-1.476c-.421-.168-.801-.336-1.051-.418a2.357 2.357 0 0 0-.758-.13c-.634 0-.969.423-.969 1.305v2.149a2.919 2.919 0 0 0 .254 1.18c.168.38.629.8 1.305 1.18 1.094.628 2.734 1.179 4.84 1.683 2.105.504 4.297.758 6.484.758 2.15 0 4.129-.297 6.024-.883 1.808-.551 3.367-1.309 4.672-2.36 1.304-1.01 2.316-2.273 3.074-3.707.714-1.429 1.094-3.07 1.094-4.882 0-2.188-.633-4.168-1.938-5.895-1.304-1.727-3.491-3.074-6.523-4.043l-5.98-1.895c-2.23-.713-3.79-1.516-4.634-2.316-.84-.797-1.261-1.808-1.261-2.988 0-1.726.671-2.95 1.98-3.746 1.305-.801 3.199-1.18 5.598-1.18 2.988 0 5.683.547 8.086 1.64.714.337 1.261.508 1.597.508.633 0 .969-.463.969-1.347v-1.98c0-.59-.125-1.051-.379-1.391-.25-.378-.672-.715-1.262-1.051-.422-.254-1.011-.504-1.77-.758a32.528 32.528 0 0 0-2.398-.676c-.886-.168-1.769-.336-2.738-.46a21.347 21.347 0 0 0-2.82-.169zm-86.822.082c-2.316 0-4.508.254-6.57.801-2.063.505-3.831 1.137-5.303 1.895-.59.297-.97.59-1.18.883-.211.296-.293.8-.293 1.476v2.063c0 .882.293 1.304.883 1.304.168 0 .378-.043.674-.125.293-.086.796-.254 1.472-.547a33.416 33.416 0 0 1 4.547-1.433A19.176 19.176 0 0 1 20.547 32c3.242 0 5.513.633 6.863 1.938 1.304 1.303 1.98 3.534 1.98 6.734v3.074c-1.683-.379-3.283-.715-4.843-.926-1.558-.21-3.031-.336-4.461-.336-4.34 0-7.75 1.094-10.316 3.286-2.571 2.187-3.832 5.093-3.832 8.671 0 3.368 1.05 6.063 3.113 8.086 2.066 2.02 4.887 3.032 8.422 3.032 4.97 0 9.097-1.938 12.379-5.813a34.153 34.153 0 0 0 1.304 2.484 13.28 13.28 0 0 0 1.516 1.98c.422.38.844.59 1.266.59.334 0 .714-.128 1.093-.378l2.653-1.77c.546-.42.8-.843.8-1.261a1.86 1.86 0 0 0-.293-.97 22.469 22.469 0 0 1-1.347-3.03c-.297-.925-.465-2.19-.465-3.75h-.086V40c0-4.633-1.176-8.086-3.492-10.36-2.36-2.273-6.025-3.41-11.033-3.41zm19.58 1.012c-.676 0-1.012.379-1.012 1.051 0 .297.129.844.379 1.687l9.894 32.547c.254.8.547 1.387.887 1.641.336.297.84.422 1.598.422h3.62c.759 0 1.347-.125 1.684-.422.34-.293.591-.84.801-1.684l6.485-27.117 6.527 27.16c.168.84.46 1.387.8 1.684.337.292.883.422 1.684.422h3.621c.715 0 1.262-.167 1.598-.422.34-.253.633-.8.887-1.64L90.949 30.02c.168-.46.25-.797.293-1.051.043-.254.086-.466.086-.676 0-.715-.379-1.05-1.055-1.05H86.36c-.757 0-1.308.166-1.644.421-.293.25-.59.8-.84 1.64L76.59 57.517l-6.653-28.211c-.166-.8-.464-1.39-.8-1.64-.336-.298-.884-.423-1.684-.423h-3.367c-.758 0-1.348.167-1.688.422-.335.25-.588.8-.796 1.64l-6.57 27.876-7.075-27.875c-.25-.8-.504-1.39-.84-1.64-.297-.298-.844-.423-1.644-.423h-4.125zM21.64 47.496a31.816 31.816 0 0 1 3.96.25 34.401 34.401 0 0 1 3.872.719v1.765c0 1.435-.168 2.653-.422 3.665-.25 1.01-.758 1.895-1.43 2.695-1.137 1.262-2.484 2.187-4 2.695-1.516.504-2.949.758-4.336.758-1.937 0-3.41-.508-4.422-1.559-1.054-1.01-1.558-2.484-1.558-4.464 0-2.106.675-3.704 2.062-4.84 1.391-1.137 3.454-1.684 6.274-1.684zM118 73.348c-4.432.063-9.664 1.052-13.621 3.832-1.223.883-1.012 2.062.336 1.894 4.508-.547 14.44-1.726 16.21.547 1.77 2.23-1.976 11.62-3.663 15.79-.504 1.26.59 1.769 1.726.8 7.41-6.231 9.348-19.242 7.832-21.137-.757-.925-4.388-1.79-8.82-1.726zM1.63 75.859c-.926.116-1.347 1.236-.368 2.121 16.508 14.902 38.359 23.872 62.613 23.872 17.305 0 37.43-5.43 51.281-15.66 2.273-1.689.298-4.254-2.02-3.204-15.533 6.57-32.421 9.77-47.788 9.77-22.778 0-44.8-6.273-62.653-16.633-.39-.231-.755-.304-1.064-.266z"/></symbol>
<symbol id="docker" viewBox="0 0 128 128"><path d="M124.8 52.1c-4.3-2.5-10-2.8-14.8-1.4-.6-5.2-4-9.7-8-12.9l-1.6-1.3-1.4 1.6c-2.7 3.1-3.5 8.3-3.1 12.3.3 2.9 1.2 5.9 3 8.3-1.4.8-2.9 1.9-4.3 2.4-2.8 1-5.9 2-8.9 2H79V49H66V24H51v12H26v13H13v14H1.8l-.2 1.5c-.5 6.4.3 12.6 3 18.5l1.1 2.2.1.2c7.9 13.4 21.7 19 36.8 19 29.2 0 53.3-13.1 64.3-40.6 7.4.4 15-1.8 18.6-8.9l.9-1.8-1.6-1zM28 39h10v11H28V39zm13.1 44.2c0 1.7-1.4 3.1-3.1 3.1-1.7 0-3.1-1.4-3.1-3.1 0-1.7 1.4-3.1 3.1-3.1 1.7.1 3.1 1.4 3.1 3.1zM28 52h10v11H28V52zm-13 0h11v11H15V52zm27.7 50.2c-15.8-.1-24.3-5.4-31.3-12.4 2.1.1 4.1.2 5.9.2 1.6 0 3.2 0 4.7-.1 3.9-.2 7.3-.7 10.1-1.5 2.3 5.3 6.5 10.2 14 13.8h-3.4zM51 63H40V52h11v11zm0-13H40V39h11v11zm13 13H53V52h11v11zm0-13H53V39h11v11zm0-13H53V26h11v11zm13 26H66V52h11v11zM38.8 81.2c-.2-.1-.5-.2-.8-.2-1.2 0-2.2 1-2.2 2.2 0 1.2 1 2.2 2.2 2.2s2.2-1 2.2-2.2c0-.3-.1-.6-.2-.8-.2.3-.4.5-.8.5-.5 0-.9-.4-.9-.9.1-.4.3-.7.5-.8z" fill="#019BC6"/></symbol>
<symbol id="github" viewBox="0 0 24 24"><path d="M12 0c-6.626 0-12 5.373-12 12 0 5.302 3.438 9.8 8.207 11.387.599.111.793-.261.793-.577v-2.234c-3.338.726-4.033-1.416-4.033-1.416-.546-1.387-1.333-1.756-1.333-1.756-1.089-.745.083-.729.083-.729 1.205.084 1.839 1.237 1.839 1.237 1.07 1.834 2.807 1.304 3.492.997.107-.775.418-1.305.762-1.604-2.665-.305-5.467-1.334-5.467-5.931 0-1.311.469-2.381 1.236-3.221-.124-.303-.535-1.524.117-3.176 0 0 1.008-.322 3.301 1.23.957-.266 1.983-.399 3.003-.404 1.02.005 2.047.138 3.006.404 2.291-1.552 3.297-1.23 3.297-1.23.653 1.653.242 2.874.118 3.176.77.84 1.235 1.911 1.235 3.221 0 4.609-2.807 5.624-5.479 5.921.43.372.823 1.102.823 2.222v3.293c0 .319.192.694.801.576 4.765-1.589 8.199-6.086 8.199-11.386 0-6.627-5.373-12-12-12z" fill="currentColor"/></symbol>
<symbol id="go" viewBox="0 0 128 128"><g fill="#00acd7" fill-rule="evenodd"><path d="M11.156 54.829c-.243 0-.303-.122-.182-.303l1.273-1.637c.12-.182.424-.303.666-.303H34.55c.243 0 .303.182.182.364l-1.03 1.576c-.121.181-.424.363-.606.363zM2.004 60.404c-.242 0-.303-.12-.182-.303l1.273-1.636c.121-.182.424-.303.667-.303h27.636c.242 0 .364.182.303.364l-.485 1.454c-.06.243-.303.364-.545.364zM16.67 65.98c-.242 0-.302-.182-.181-.364l.848-1.515c.122-.182.364-.363.607-.363h12.12c.243 0 .364.181.364.424l-.12 1.454c0 .243-.243.425-.425.425zM79.58 53.738c-3.819.97-6.425 1.697-10.182 2.666-.91.243-.97.303-1.758-.606-.909-1.03-1.576-1.697-2.848-2.303-3.819-1.878-7.516-1.333-10.97.91-4.121 2.666-6.242 6.605-6.182 11.514.06 4.849 3.394 8.849 8.182 9.516 4.121.545 7.576-.91 10.303-4 .545-.667 1.03-1.394 1.636-2.243H56.064c-1.272 0-1.575-.788-1.151-1.818.788-1.879 2.242-5.03 3.09-6.606.183-.364.607-.97 1.516-.97h22.06c-.12 1.637-.12 3.273-.363 4.91-.667 4.363-2.303 8.363-4.97 11.878-4.364 5.758-10.06 9.333-17.273 10.303-5.939.788-11.454-.364-16.302-4-4.485-3.394-7.03-7.879-7.697-13.454-.788-6.606 1.151-12.546 5.151-17.758 4.303-5.636 10-9.212 16.97-10.485 5.697-1.03 11.151-.363 16.06 2.97 3.212 2.121 5.515 5.03 7.03 8.545.364.546.122.849-.606 1.03z"/><path d="M99.64 87.253c-5.515-.122-10.546-1.697-14.788-5.334-3.576-3.09-5.818-7.03-6.545-11.697-1.091-6.848.787-12.909 4.909-18.302 4.424-5.819 9.757-8.849 16.97-10.122 6.181-1.09 12-.484 17.272 3.091 4.788 3.273 7.757 7.697 8.545 13.515 1.03 8.182-1.333 14.849-6.97 20.546-4 4.06-8.909 6.606-14.545 7.757-1.636.303-3.273.364-4.848.546zm14.424-24.485c-.06-.788-.06-1.394-.182-2-1.09-6-6.606-9.394-12.363-8.06-5.637 1.272-9.273 4.848-10.606 10.545-1.091 4.727 1.212 9.515 5.575 11.454 3.334 1.455 6.667 1.273 9.879-.363 4.788-2.485 7.394-6.364 7.697-11.576z" fill-rule="nonzero"/></g></symbol>
<symbol id="googlecloud" viewBox="0 0 128 128"><g fill="#557ebf"><path d="M80.6 40.3h.4l-.2-.2 14-14v-.3c-11.8-10.4-28.1-14-43.2-9.5C36.5 20.8 24.9 32.8 20.7 48c.2-.1.5-.2.8-.2 5.2-3.4 11.4-5.4 17.9-5.4 2.2 0 4.3.2 6.4.6.1-.1.2-.1.3-.1 9-9.9 24.2-11.1 34.6-2.6h-.1z"/><path d="M108.1 47.8c-2.3-8.5-7.1-16.2-13.8-22.1L80 39.9c6 4.9 9.5 12.3 9.3 20v2.5c16.9 0 16.9 25.2 0 25.2H63.9v20h-.1l.1.2h25.4c14.6.1 27.5-9.3 31.8-23.1 4.3-13.8-1-28.8-13-36.9z"/><path d="M39 107.9h26.3V87.7H39c-1.9 0-3.7-.4-5.4-1.1l-15.2 14.6v.2c6 4.3 13.2 6.6 20.7 6.6z"/><path d="M40.2 41.9c-14.9.1-28.1 9.3-32.9 22.8-4.8 13.6 0 28.5 11.8 37.3l15.6-14.9c-8.6-3.7-10.6-14.5-4-20.8 6.6-6.4 17.8-4.4 21.7 3.8L68 55.2C61.4 46.9 51.1 42 40.2 42.1z"/></g></symbol>
<symbol id="javascript" viewBox="0 0 128 128"><path fill="#F0DB4F" d="M2 1v125h125V1H2zm66.119 106.513c-1.845 3.749-5.367 6.212-9.448 7.401-6.271 1.44-12.269.619-16.731-2.059-2.986-1.832-5.318-4.652-6.901-7.901l9.52-5.83c.083.035.333.487.667 1.071 1.214 2.034 2.261 3.474 4.319 4.485 2.022.69 6.461 1.131 8.175-2.427 1.047-1.81.714-7.628.714-14.065C58.433 78.073 58.48 68 58.48 58h11.709c0 11 .06 21.418 0 32.152.025 6.58.596 12.446-2.07 17.361zm48.574-3.308c-4.07 13.922-26.762 14.374-35.83 5.176-1.916-2.165-3.117-3.296-4.26-5.795 4.819-2.772 4.819-2.772 9.508-5.485 2.547 3.915 4.902 6.068 9.139 6.949 5.748.702 11.531-1.273 10.234-7.378-1.333-4.986-11.77-6.199-18.873-11.531-7.211-4.843-8.901-16.611-2.975-23.335 1.975-2.487 5.343-4.343 8.877-5.235l3.688-.477c7.081-.143 11.507 1.727 14.756 5.355.904.916 1.642 1.904 3.022 4.045-3.772 2.404-3.76 2.381-9.163 5.879-1.154-2.486-3.069-4.046-5.093-4.724-3.142-.952-7.104.083-7.926 3.403-.285 1.023-.226 1.975.227 3.665 1.273 2.903 5.545 4.165 9.377 5.926 11.031 4.474 14.756 9.271 15.672 14.981.882 4.916-.213 8.105-.38 8.581z"/></symbol>
<symbol id="linkedin" viewBox="0 0 24 24"><path d="M20.447 20.452h-3.554v-5.569c0-1.328-.027-3.037-1.852-3.037-1.853 0-2.136 1.445-2.136 2.939v5.667H9.351V9h3.414v1.561h.046c.477-.9 1.637-1.85 3.37-1.85 3.601 0 4.267 2.37 4.267 5.455v6.286zM5.337 7.433c-1.144 0-2.063-.926-2.063-2.065 0-1.138.92-2.063 2.063-2.063 1.14 0 2.064.925 2.064 2.063 0 1.139-.925 2.065-2.064 2.065zm1.782 13.019H3.555V9h3.564v11.452zM22.225 0H1.771C.792 0 0 .774 0 1.729v20.542C0 23.227.792 24 1.771 24h20.451C23.2 24 24 23.227 24 22.271V1.729C24 .774 23.2 0 22.222 0h.003z" fill="currentColor"/></symbol>
<symbol id="moon" viewBox="0 0 24 24"><path d="M21 12.79A9 9 0 1 1 11.21 3 7 7 0 0 0 21 12.79z" stroke="currentColor" stroke-width="2" stroke-linecap="round" stroke-linejoin="round"/></symbol>
<symbol id="nestjs" viewBox="0 0 128 128"><path fill="#df234f" d="M75.323.4c-.898 0-1.796.199-2.594.498 1.696 1.098 2.594 2.594 3.093 4.29 0 .2.1.4.1.599 0 .2.1.399.1.598.1 2.894-.799 3.293-1.397 4.989-.998 2.194-.698 4.589.499 6.484.1.2.2.5.399.699-1.297-8.38 5.686-9.578 6.983-12.172.1-2.294-1.795-3.79-3.292-4.888C77.718.599 76.52.399 75.324.399ZM85.8 2.194c-.1.798 0 .599-.1.998 0 .299 0 .598-.1.898-.1.299-.1.499-.2.798-.1.3-.199.499-.299.798-.1.2-.2.399-.3.698-.099.1-.199.3-.298.4-.1.1-.1.199-.2.299-.2.2-.3.498-.499.698l-.598.599c-.2.2-.4.399-.599.498-.698.5-1.496.898-2.195 1.397-.2.2-.499.3-.698.499-.2.2-.4.3-.599.499l-.598.598c-.2.2-.4.4-.5.699-.199.2-.299.499-.498.698-.1.3-.2.499-.399.798-.1.3-.2.5-.3.798-.1.3-.199.599-.199.798 0 .1 0 .3-.1.4 0 .1 0 .299-.1.399v1.396c0 .3 0 .5.1.798 0 .3.1.5.2.799s.2.498.3.798c.099.2.199.299.199.499l-7.583-2.894a53.157 53.157 0 0 0-3.79-.997c-.699-.2-1.397-.3-2.096-.5a61.927 61.927 0 0 0-5.986-.897h-.2c-1.995-.2-3.89-.3-5.885-.3-1.497 0-2.894.1-4.29.2-1.996.1-3.99.4-5.986.699l-1.497.299c-.997.2-1.995.399-2.993.698-.499.1-.997.3-1.496.4-.499.199-.998.398-1.397.598-.399.2-.698.3-1.097.499-.1 0-.1 0-.2.1-.3.199-.598.299-.898.498-.1 0-.2.1-.2.1-.3.199-.598.299-.898.498-.299.2-.598.3-.798.5-.2.199-.499.299-.698.498 0 0-.1 0-.1.1-.2.1-.399.3-.598.499l-.1.1c-.2.1-.3.299-.499.399-.1 0-.1.1-.2.1-.199.1-.299.299-.498.398 0 .1-.1.1-.1.1l-.599.599-.1.1-.598.598s0 .1-.1.1l-.499.499c-.1.1-.2.1-.2.2l-.598.598c0 .1-.1.1-.1.2l-.798.797-.1.1c-.498.599-1.097 1.098-1.695 1.597-.599.498-1.198.997-1.896 1.496s-1.297.898-1.995 1.297c-.699.399-1.397.698-2.095.998-.699.299-1.397.598-2.095.798-1.397.3-2.794.898-3.991.997 0-.498-.3-.399-.599-.399-.299.1-.598.1-.798.2-.3.1-.499.2-.798.3a2.96 2.96 0 0 0-.798.398c-.2.2-.499.3-.698.5-.2.199-.5.398-.699.598-.2.2-.499.399-.698.598-.2.2-.4.4-.599.699-.2.299-.399.498-.499.798-.199.2-.299.499-.498.798-.1.3-.3.598-.4.898l-.299.898c-.1.299-.1.498-.2.798v.1c-.1.3-.1.698-.1.898.1-.1.1.1.1.299v.399c0 .2.1.399.1.598.1.2.1.4.2.599.099.2.199.399.398.599.1.2.3.399.4.598.199.2.398.4.598.499.2.2.399.4.598.499.798.698.998.898 1.996 1.496.2.1.299.2.499.3h.1v.2c0 .298.1.498.199.797.1.3.2.599.3.798l.298.599c0 .1.1.1.1.2.1.299.3.498.4.698.199.2.299.499.498.698l.599.599.598.598h.1c.2.2.399.3.599.5s.499.299.698.398c.2.1.499.3.798.4.2.1.4.199.698.199 0 0 .1 0 .1.1.1 0 .3.1.4.1-.1 1.795-.1 3.491.1 4.09.298.698 1.795-1.397 3.192-3.691-.2 2.294-.3 4.988 0 5.786.399.798 2.294-1.796 4.09-4.59 23.345-5.387 44.695 10.775 46.99 33.622-.4-3.592-4.79-5.587-6.884-5.088-.998 2.394-2.694 5.587-5.387 7.482.199-2.195.1-4.39-.3-6.584-.698 2.993-2.095 5.886-4.09 8.28-3.093.2-6.285-1.297-7.882-3.591-.1-.1-.2-.3-.299-.4-.1-.199-.2-.498-.3-.698-.1-.2-.199-.499-.199-.698v-1.197c0-.2.1-.5.2-.699s.1-.499.2-.698c.099-.2.199-.499.398-.698.599-1.597.599-2.894-.499-3.592l-.598-.3c-.1 0-.3-.099-.4-.099s-.199-.1-.299-.1c-.199-.1-.498-.1-.698-.2-.2-.1-.499-.1-.698-.1-.2 0-.5-.099-.699-.099h-.498c-.3 0-.5 0-.699.1-.2 0-.499.1-.698.1-.2.1-.499.1-.699.2-.199.099-.399.199-.698.298l-.599.3c-7.682 4.988-3.092 16.76 2.096 20.152-1.996.4-3.991.798-4.59 1.198l-.1.1c1.397.897 2.894 1.596 4.49 2.194 2.095.699 4.39 1.297 5.387 1.597 2.694.598 5.488.798 8.281.598 14.566-.998 26.538-12.171 28.732-26.737.1.3.1.598.2.898.1.598.2 1.197.3 1.895.1.3.1.599.1.898v.1c0 .3.099.599.099.898 0 .399.1.698.1 1.097v4.19c0 .3-.1.5-.1.799v.299c0 .3-.1.599-.1.998-.1.299-.1.598-.2.898v.1c-.1.299-.1.598-.199.897v.1c-.1.3-.1.599-.2.898v.1l-.299.898v.1c-.1.299-.2.698-.299.997-.1.3-.2.599-.4.998-.099.299-.199.698-.398.997-.1.3-.3.599-.4.998-.099.3-.299.599-.398.898 0 .1-.1.2-.1.2s0 .1-.1.1c-2.095 4.289-5.287 8.08-9.278 11.073-.3.2-.499.4-.798.599-.1.1-.2.1-.2.2-.2.199-.499.299-.698.498l.1.2c.498-.1.898-.1 1.396-.2.898-.1 1.696-.3 2.594-.499.2 0 .5-.1.699-.2.2 0 .299-.1.498-.1s.5-.099.699-.099c.2-.1.399-.1.598-.2 3.293-.797 6.485-1.895 9.578-3.192-5.288 7.183-12.271 12.97-20.452 16.76 3.791-.299 7.582-.897 11.273-1.995a52.469 52.469 0 0 0 31.127-24.941c-1.396 7.582-4.39 14.865-8.879 21.25 3.193-2.095 6.086-4.59 8.78-7.283 7.382-7.682 12.27-17.559 13.867-28.034 1.098 5.188 1.497 10.575.998 15.863 23.844-33.222 1.995-67.641-7.183-76.72 0-.1-.1-.1-.1-.2 0 .4 0 .798-.1 1.198-.1.798-.2 1.496-.3 2.194-.199.699-.398 1.497-.598 2.195-.2.699-.499 1.397-.798 2.095-.3.699-.599 1.397-.998 1.996s-.798 1.297-1.197 1.895c-.399.599-.898 1.197-1.397 1.796-.498.599-.997 1.097-1.596 1.696-.3.3-.598.599-.997.798-.3.2-.5.4-.799.698-.598.5-1.197.898-1.895 1.297-.599.4-1.297.799-1.995 1.098l-2.096.898c-.698.299-1.396.499-2.095.698-.698.2-1.496.4-2.195.499-.798.1-1.496.2-2.194.3-.5 0-1.098.099-1.597.099-.798 0-1.496-.1-2.194-.1-.799-.1-1.497-.2-2.195-.3a7.874 7.874 0 0 1-2.195-.598c.698-.1 1.496-.1 2.195-.299.798-.1 1.496-.3 2.195-.499.698-.2 1.496-.399 2.095-.698l2.095-.898c.698-.3 1.297-.698 1.995-1.097.599-.4 1.297-.898 1.896-1.297.598-.5 1.197-.998 1.696-1.497.598-.499 1.097-1.097 1.596-1.596.499-.599.998-1.197 1.397-1.796.1-.1.1-.2.2-.3.298-.498.697-1.097.997-1.595a18.56 18.56 0 0 0 .997-1.996c.3-.698.6-1.397.799-2.095l.598-2.095c.1-.798.3-1.496.3-2.195.1-.798.1-1.496.1-2.195 0-.498 0-1.097-.1-1.596-.1-.798-.2-1.496-.3-2.195-.1-.798-.3-1.496-.499-2.195-.2-.698-.499-1.396-.698-2.095-.3-.698-.599-1.396-.898-1.995-.399-.698-.698-1.297-1.097-1.995-.4-.599-.898-1.198-1.297-1.796-.499-.599-.998-1.098-1.497-1.696-.299-.3-.598-.599-.898-.798-1.496-1.197-2.993-2.195-4.589-3.193-.2-.1-.399-.2-.698-.3-1.297-1.096-2.295-1.396-3.292-1.795Z"/></symbol>
<symbol id="nextjs" viewBox="0 0 128 128"><path d="M64 0A64 64 0 0 0 0 64a64 64 0 0 0 64 64 64 64 0 0 0 35.508-10.838L47.014 49.34v40.238H38.4V38.4h10.768l57.125 73.584A64 64 0 0 0 128 64 64 64 0 0 0 64 0Zm17.777 38.4h8.534v48.776L81.777 75.97Zm24.18 73.92-.111.096a64 64 0 0 0 .111-.096z"/></symbol>
<symbol id="nodejs" viewBox="0 0 128 128"><path fill="#5fa04e" d="m64.36 0.005859c-1.045 0-2.091 0.2701-3.027 0.8125l-49.82 28.75 53.63 98.38c0.7789-0.1012 1.542-0.3539 2.244-0.7578l50.17-28.97c1.21-0.7006 2.114-1.787 2.607-3.049l-55.23-95.13c-0.1908-0.01819-0.3808-0.03711-0.5723-0.03711zm1.9 0.3203 35.65 61.39 16.86-31.02c-0.3597-0.3535-0.7631-0.6666-1.211-0.9258l-50.17-28.95c-0.3597-0.2085-0.7391-0.3638-1.125-0.4922zm-55.6 29.79c-1.566 1.133-2.518 2.949-2.518 4.9v57.95c0 1.292 0.4194 2.521 1.15 3.537l19.36-33.38-18-33.01zm108.8 1.408-16.97 31.21 18.03 31.06c0.03737-0.2716 0.05859-0.5456 0.05859-0.8242v-57.95c0-1.275-0.4097-2.488-1.123-3.496zm-90.25 32.63-19.23 33.15c0.3538 0.344 0.7477 0.6527 1.186 0.9062l50.16 28.97c0.8345 0.4788 1.753 0.7317 2.682 0.7852l-34.79-63.82z"/></symbol>
<symbol id="postgresql" viewBox="0 0 128 128"><path fill-rule="evenodd" clip-rule="evenodd" fill="#336791" d="M123.258 76.784c-.45-2.918-2.901-4.829-5.752-4.958-1.032-.047-2.08.061-3.109.192-1.243.158-2.471.438-3.711.623-.857.128-1.726.187-2.582.275l-.021-.111c1.598-3.018 3.263-6.003 4.775-9.064 1.159-2.348 2.151-4.781 3.176-7.194 1.696-3.998 3.051-8.12 4.173-12.309 1.075-4.011 1.995-8.066 2.284-12.227.116-1.662.196-3.331.187-4.995-.008-1.327-.151-2.656-.284-3.979-.15-1.516-.608-2.953-1.242-4.336-.836-1.822-2.132-3.317-3.496-4.737-1.092-1.137-2.293-2.173-3.484-3.208-1.698-1.477-3.607-2.656-5.59-3.703a32.18 32.18 0 00-7.09-2.75c-1.493-.381-3.02-.664-4.532-.966-.544-.11-1.089-.337-1.633-.337H85.086c-.37 0-.737.191-1.11.233-2.452.273-4.875.735-7.228 1.464-.88.273-1.684.101-2.52.024-.641-.059-1.271-.231-1.912-.263-2.442-.122-4.887-.301-7.328-.275-2.339.024-4.654.409-6.918 1.052-1.895.538-3.749 1.195-5.447 2.191-.727.426-1.303.346-2.055.129-2.527-.729-5.072-1.414-7.639-1.989-1.6-.358-3.245-.536-4.879-.707a57.214 57.214 0 00-4.718-.294c-1.538-.033-3.087-.032-4.618.104a30.16 30.16 0 00-7.158 1.513 23.813 23.813 0 00-7.086 3.865c-2.167 1.715-3.905 3.809-5.303 6.2-1.473 2.523-2.483 5.224-3.111 8.061-.34 1.537-.555 3.117-.788 4.678-.073.486.732.972-.268 1.456v6.794c1 .452.208.903.266 1.356.139 1.089.262 2.187.446 3.268.291 1.711.636 3.417.988 5.117a324.86 324.86 0 001.546 7.111c.396 1.72.847 3.43 1.319 5.131.721 2.598 1.431 5.201 2.246 7.77.757 2.387 1.624 4.74 2.484 7.093 1.191 3.255 2.617 6.405 4.327 9.424 1.479 2.614 3.169 5.062 5.436 7.076 1.494 1.327 3.157 2.347 5.093 2.857 1.521.4 3.067.448 4.624.129a10.979 10.979 0 004.824-2.311c.163-.134.342-.236.535.01.735.931 1.719 1.552 2.748 2.089 2.777 1.448 5.803 1.882 8.877 2.059.744.043 1.496-.064 2.246-.085 1.461-.04 2.881-.325 4.278-.729.732-.212 1.447-.481 2.192-.732.039.793.089 1.557.112 2.321l.104 4.166c.019.634.044 1.27.103 1.901.151 1.627.299 3.255.493 4.877.135 1.118.275 2.245.538 3.336a38.176 38.176 0 002.158 6.428 13.81 13.81 0 003.9 5.185c2.22 1.836 4.822 2.619 7.632 2.764 1.162.061 2.357.004 3.501-.204a49.01 49.01 0 005.387-1.275c3.591-1.084 6.695-2.956 9.014-5.981 1.32-1.724 2.404-3.589 3.1-5.648.574-1.701 1.115-3.419 1.545-5.16.34-1.372.508-2.787.715-4.188.137-.927.219-1.863.305-2.797.14-1.517.283-3.033.384-4.553.07-1.058.067-2.121.109-3.181.013-.323.065-.644.095-.966.028-.298.178-.401.482-.396 1.071.016 2.144.044 3.212-.004 1.197-.054 2.405-.105 3.583-.303a56.542 56.542 0 004.99-1.067c1.943-.508 3.725-1.418 5.44-2.455 1.998-1.207 3.819-2.623 5.297-4.447 1.285-1.591 1.894-3.43 1.584-5.438zm-3.412.982c-.066.915-.485 1.699-1.093 2.369-2.869 3.163-6.468 5.082-10.585 6.027-1.564.358-3.178.544-4.779.692a32.093 32.093 0 01-4.114.097c-1.006-.038-2.004-.268-3.032-.416-.103.94-.201 1.919-.32 2.896l-.479 3.745c-.145 1.187-.258 2.378-.407 3.564-.146 1.151-.328 2.298-.481 3.449-.143 1.072-.248 2.149-.407 3.219-.245 1.64-.479 3.284-.799 4.911-.384 1.945-.973 3.829-1.934 5.583-1.172 2.141-2.834 3.772-4.949 4.98-2.18 1.246-4.563 1.894-6.979 2.436-1.71.384-3.472.447-5.204.291-3.004-.272-5.568-1.557-7.506-3.886-1.85-2.223-3.102-4.771-3.55-7.655a63.102 63.102 0 01-.491-4.136 108.067 108.067 0 01-.299-4.62 250.203 250.203 0 01-.197-5.871c-.053-2.406-.07-4.812-.104-7.218l-.006-.092c-1.224.734-2.427 1.538-3.703 2.2a12.392 12.392 0 01-4.798 1.353c-1.318.1-2.653.191-3.965.086-2.151-.173-4.3-.51-6.226-1.569-.781-.43-1.596-.953-2.134-1.64-1.29-1.646-.672-3.726 1.273-4.727 1.344-.693 2.811-.982 4.268-1.319a44.368 44.368 0 003.761-1.029c1.222-.4 1.993-1.391 2.754-2.363l1.206-1.551c-.503-.053-.977-.107-1.451-.151-1.439-.136-2.812-.532-4.125-1.114-1.124-.497-1.141-.551-1.965.343-1.376 1.494-2.714 3.023-4.062 4.542-.992 1.117-1.978 2.241-2.965 3.361-.978 1.108-1.894 2.279-2.947 3.31-1.564 1.531-3.449 2.452-5.698 2.348-1.443-.066-2.764-.572-3.952-1.399-2.452-1.708-4.104-4.097-5.608-6.606-1.927-3.215-3.406-6.64-4.672-10.159-.876-2.432-1.756-4.866-2.521-7.333-.831-2.681-1.56-5.396-2.277-8.11a157.373 157.373 0 01-1.482-6.182 216.117 216.117 0 01-1.464-7.079c-.298-1.599-.471-3.221-.712-4.831-.325-2.17-.385-4.36-.267-6.539.105-1.963.387-3.921.667-5.871.388-2.698 1.277-5.244 2.556-7.648.783-1.473 1.755-2.812 2.879-4.056 1.845-2.042 4.078-3.518 6.562-4.626 1.736-.774 3.57-1.24 5.439-1.604 2.774-.54 5.573-.519 8.373-.461 1.224.025 2.443.248 3.666.369 2.633.262 5.214.816 7.762 1.5 1.857.498 3.676 1.143 5.518 1.703.185.056.456.051.607-.048 2.496-1.629 5.224-2.704 8.125-3.319 1.101-.233 2.237-.335 3.363-.407 1.369-.087 2.749-.167 4.115-.088 1.642.094 3.276.336 4.908.56.792.108 1.565.383 2.359.458.38.036.783-.242 1.185-.335 2.049-.473 4.089-1 6.156-1.374 1.539-.278 3.111-.409 4.676-.499 1.745-.1 3.503-.173 5.247-.089a36.66 36.66 0 016.555.923c2.677.623 5.245 1.528 7.686 2.784 1.824.938 3.558 2.026 5.119 3.364 1.023.878 2.07 1.745 2.994 2.723 1.14 1.206 2.303 2.413 3.018 3.958.538 1.165.922 2.371 1.028 3.647.132 1.586.292 3.178.277 4.766-.014 1.519-.221 3.037-.368 4.552-.334 3.454-1.085 6.833-1.997 10.167a116.972 116.972 0 01-2.589 8.17c-.879 2.481-1.893 4.917-2.918 7.343a80.07 80.07 0 01-2.458 5.303c-1.677 3.286-3.421 6.538-5.438 9.633-.348.535-.678 1.083-1.018 1.629.88.594 1.877.803 2.881.911.955.104 1.929.166 2.883.095 1.527-.113 3.049-.331 4.567-.544 1.504-.21 2.978-.638 4.522-.525 1.542.112 2.645 1.284 2.54 2.729zm-22.013-3.353c-.655-.846-1.323-1.682-1.964-2.538-1.006-1.344-1.729-2.845-2.455-4.353-.688-1.429-1.532-2.782-2.257-4.195-1.265-2.465-2.553-4.922-3.718-7.435-1.465-3.157-2.62-6.426-2.984-9.923-.154-1.48-.193-2.958.106-4.424.479-2.341 1.702-4.172 3.758-5.428 1.907-1.165 4.032-1.541 6.209-1.659 1.351-.073 2.708-.013 4.11-.013l-.047-.237c-.872-1.823-1.687-3.677-2.641-5.457-1.346-2.512-3.068-4.777-4.986-6.877-1.421-1.555-2.96-2.998-4.646-4.273-1.658-1.255-3.405-2.376-5.269-3.293-2.223-1.093-4.538-1.938-6.967-2.477-2.334-.518-4.683-.835-7.077-.861-2.042-.022-4.071.07-6.06.531-3.002.695-5.748 1.931-8.137 3.933a21.143 21.143 0 00-3.517 3.77c-1.196 1.643-2.161 3.417-2.986 5.277-1.132 2.552-1.909 5.208-2.44 7.938-.266 1.361-.474 2.734-.686 4.106-.074.48-.08.971-.123 1.521.369-.192.635-.34.907-.472l.885-.397c2.993-1.369 6.094-2.25 9.427-2.149 1.416.043 2.771.323 4.03.943 2.415 1.191 3.828 3.216 4.442 5.779.424 1.769.714 3.573.996 5.372.221 1.405.447 2.825.473 4.242.037 2.071-.068 4.146-.181 6.216a17.386 17.386 0 01-1.08 5.146c-1.12 2.993-2.368 5.937-3.534 8.913-.385.983-.681 2.001-1.045 3.082.562 0 1.018-.004 1.474.002.178.003.36.008.532.049 1.34.316 2.502.923 3.455 1.954 1.271 1.372 1.938 2.973 1.972 4.826.019 1.027-.089 2.057-.084 3.084.021 4.786.057 9.572.097 14.357.007.782.046 1.565.102 2.346.117 1.635.235 3.271.395 4.902.112 1.157.268 2.312.451 3.461.259 1.628 1 3.077 1.841 4.462.724 1.191 1.665 2.203 2.905 2.901 2.107 1.186 4.376 1.285 6.663.848 1.545-.295 3.062-.769 4.562-1.258a10.128 10.128 0 003.937-2.354c1.051-1.019 1.797-2.261 2.3-3.632.976-2.659 1.28-5.459 1.684-8.237.151-1.04.282-2.083.42-3.125.157-1.186.316-2.371.468-3.556.112-.883.214-1.768.322-2.651.154-1.268.317-2.535.464-3.804.113-.981.209-1.966.309-2.949.129-1.256.268-2.512.379-3.77.086-.955.051-1.927.22-2.864.311-1.718 1.123-3.18 2.646-4.125.637-.395 1.356-.655 2.063-.989l-.12-.186zm-57.597-7.052a17.526 17.526 0 01-1.354-5.622c-.128-1.825.089-3.643.276-5.46.182-1.76.333-3.528.386-5.296.088-2.906-.108-5.808-.247-8.712-.084-1.729.117-3.479.271-5.212.139-1.561.312-3.126.607-4.664.495-2.581 1.152-5.125 2.086-7.591.887-2.338 1.906-4.615 3.345-6.665.986-1.406 2.105-2.72 3.18-4.094l-.319-.113c-3.498-1.111-7.053-1.979-10.709-2.358-1.729-.179-3.464-.284-5.198-.387-.532-.032-1.072.04-1.606.091-1.322.126-2.66.176-3.961.424-2.214.421-4.338 1.129-6.305 2.282-1.766 1.035-3.249 2.373-4.491 3.978-1.372 1.772-2.295 3.776-2.958 5.913-.783 2.521-1.156 5.115-1.257 7.733-.088 2.295-.132 4.603.264 6.889.295 1.702.492 3.422.817 5.117.443 2.311.918 4.617 1.467 6.904.785 3.274 1.569 6.553 2.499 9.787.89 3.099 1.894 6.17 2.982 9.204.89 2.476 1.919 4.906 3.003 7.304.706 1.562 1.561 3.065 2.457 4.528.953 1.553 2.037 3.027 3.508 4.154 1.856 1.423 3.293 1.644 5.179.083.808-.669 1.491-1.495 2.194-2.282 1.117-1.25 2.195-2.534 3.307-3.788 1.416-1.598 2.85-3.179 4.273-4.769.301-.336.59-.682.883-1.022l-.484-.425a17.695 17.695 0 01-4.095-5.931zm53.688-47.569a61.488 61.488 0 013.309 4.204c2 2.809 3.598 5.842 4.775 9.087.521 1.43.937 2.874.751 4.439-.129 1.096-.118 2.208-.215 3.31-.081.917-.226 1.829-.345 2.743-.178 1.378-.436 2.752-.513 4.136-.073 1.317.003 2.648.086 3.968.084 1.341.265 2.676.388 4.015.139 1.518.326 3.036.369 4.557.035 1.249-.076 2.506-.185 3.753-.13 1.502-.511 2.956-1.079 4.351-.399.982-.876 1.934-1.327 2.917l.181.192.275.213.277-.496a93.621 93.621 0 006.222-11.493 186.333 186.333 0 003.287-7.766c1.624-4.064 2.909-8.242 3.903-12.503.446-1.913.787-3.855 1.09-5.797.236-1.518.433-3.054.477-4.586.047-1.625-.043-3.263-.193-4.884-.112-1.224-.414-2.456-1.181-3.451-1.233-1.602-2.564-3.134-4.201-4.346-1.378-1.021-2.751-2.068-4.23-2.927-2.345-1.36-4.883-2.266-7.535-2.883-2.588-.603-5.21-.863-7.849-.918-1.556-.033-3.119.134-4.672.28-1.407.132-2.805.357-4.222.543 1.52.855 3.019 1.615 4.433 2.511 2.973 1.883 5.637 4.149 7.924 6.831zM55.299 72.514c.961-3.073 2.27-6.007 3.538-8.959 1.028-2.394 1.59-4.916 1.777-7.506.093-1.277.067-2.57.004-3.851a44.628 44.628 0 00-.392-4.259c-.266-1.801-.569-3.603-.995-5.371-.462-1.913-1.627-3.245-3.623-3.736-1.216-.299-2.424-.287-3.653-.093-3.002.473-5.75 1.579-8.31 3.199-.515.326-.798.589-.709 1.328.188 1.565.229 3.155.222 4.735-.01 2.236-.105 4.472-.19 6.707-.028.728-.133 1.452-.211 2.177-.12 1.11-.351 2.219-.344 3.327.007 1.142.124 2.311.401 3.417.88 3.507 2.744 6.377 5.799 8.402 1.879 1.245 3.958 1.873 6.24 1.992.155-.524.293-1.019.446-1.509zm-3.586-30.087c-.402-.844-.172-1.543.76-1.867.227-.08.461-.165.697-.188.324-.032.654-.008.982-.008 1.182.006 2.319.171 3.295.923.626.482.794 1.122.389 1.779-.575.932-1.452 1.4-2.529 1.49-1.697.141-2.888-.65-3.594-2.129zm47.04-.308c.136-1.124.245-2.251.384-3.375.056-.452-.182-.574-.561-.585-1.192-.033-2.384-.075-3.576-.097-1.344-.024-2.652.192-3.896.703-1.38.568-2.431 1.478-2.86 2.98a9.042 9.042 0 00-.293 3.41 20.11 20.11 0 001.193 5.176c.834 2.221 1.707 4.441 2.75 6.569 1.413 2.881 3.012 5.67 4.513 8.507.401.757.738 1.547 1.156 2.431a13.783 13.783 0 001.351-5.622c.041-1.61-.088-3.227-.182-4.838-.059-.986-.198-1.966-.294-2.95-.134-1.371-.337-2.741-.368-4.115-.031-1.397.068-2.802.188-4.197.113-1.338.334-2.665.495-3.997zm-2.689-1.082c-.443 1.223-1.39 1.913-2.618 2.116-1.145.188-2.148-.235-2.894-1.148-.531-.65-.328-1.42.468-1.859.914-.506 1.919-.634 3.104-.711.322.059.807.108 1.268.24.669.189.916.692.672 1.362zm-35.422 37.66c-.655-.535-1.521-.566-2.144.021-.773.73-1.453 1.565-2.133 2.388-.785.951-1.521 1.94-2.534 2.677-1.474 1.071-3.192 1.515-4.919 1.935-1.373.334-2.752.644-4.129.965l-.017.178c.409.189.805.425 1.231.56 2.1.665 4.236.996 6.455.808 1.602-.136 3.128-.485 4.574-1.171 1.99-.943 3.521-2.437 4.823-4.175.218-.29.317-.719.343-1.093.089-1.321-.582-2.303-1.55-3.093zm51.751.526c-1.69.181-3.382.373-5.077.47-.818.047-1.648-.109-2.474-.176-1.385-.112-2.737-.42-3.908-1.16-.678-.427-1.241-.475-1.961-.233-1.028.346-1.867.872-2.115 1.986-.169.753-.23 1.533-.298 2.304-.013.136.157.386.287.42.793.209 1.59.456 2.401.529.996.09 2.01.061 3.013.011 1.083-.054 2.173-.124 3.24-.304 2.515-.422 4.948-1.11 7.109-2.536.779-.515 1.551-1.041 2.325-1.562l-.064-.11c-.826.123-1.648.273-2.478.361z"/></symbol>
<symbol id="react" viewBox="0 0 128 128"><g fill="#61DAFB"><circle cx="64" cy="64" r="11.4"/><path d="M107.3 45.2c-2.2-.8-4.5-1.6-6.9-2.3.6-2.4 1.1-4.8 1.5-7.1 2.1-13.2-.2-22.5-6.6-26.1-1.9-1.1-4-1.6-6.4-1.6-7 0-15.9 5.2-24.9 13.9-9-8.7-17.9-13.9-24.9-13.9-2.4 0-4.5.5-6.4 1.6-6.4 3.7-8.7 13-6.6 26.1.4 2.3.9 4.7 1.5 7.1-2.4.7-4.7 1.4-6.9 2.3C8.2 50 1.4 56.6 1.4 64s6.9 14 19.3 18.8c2.2.8 4.5 1.6 6.9 2.3-.6 2.4-1.1 4.8-1.5 7.1-2.1 13.2.2 22.5 6.6 26.1 1.9 1.1 4 1.6 6.4 1.6 7.1 0 16-5.2 24.9-13.9 9 8.7 17.9 13.9 24.9 13.9 2.4 0 4.5-.5 6.4-1.6 6.4-3.7 8.7-13 6.6-26.1-.4-2.3-.9-4.7-1.5-7.1 2.4-.7 4.7-1.4 6.9-2.3 12.5-4.8 19.3-11.4 19.3-18.8s-6.8-14-19.3-18.8zM92.5 14.7c4.1 2.4 5.5 9.8 3.8 20.3-.3 2.1-.8 4.3-1.4 6.6-5.2-1.2-10.7-2-16.5-2.5-3.4-4.8-6.9-9.1-10.4-13 7.4-7.3 14.9-12.3 21-12.3 1.3 0 2.5.3 3.5.9zM81.3 74c-1.8 3.2-3.9 6.4-6.1 9.6-3.7.3-7.4.4-11.2.4-3.9 0-7.6-.1-11.2-.4-2.2-3.2-4.2-6.4-6-9.6-1.9-3.3-3.7-6.7-5.3-10 1.6-3.3 3.4-6.7 5.3-10 1.8-3.2 3.9-6.4 6.1-9.6 3.7-.3 7.4-.4 11.2-.4 3.9 0 7.6.1 11.2.4 2.2 3.2 4.2 6.4 6 9.6 1.9 3.3 3.7 6.7 5.3 10-1.7 3.3-3.4 6.6-5.3 10zm8.3-3.3c1.5 3.5 2.7 6.9 3.8 10.3-3.4.8-7 1.4-10.8 1.9 1.2-1.9 2.5-3.9 3.6-6 1.2-2.1 2.3-4.2 3.4-6.2zM64 97.8c-2.4-2.6-4.7-5.4-6.9-8.3 2.3.1 4.6.2 6.9.2 2.3 0 4.6-.1 6.9-.2-2.2 2.9-4.5 5.7-6.9 8.3zm-18.6-15c-3.8-.5-7.4-1.1-10.8-1.9 1.1-3.3 2.3-6.8 3.8-10.3 1.1 2 2.2 4.1 3.4 6.1 1.2 2.2 2.4 4.1 3.6 6.1zm-7-25.5c-1.5-3.5-2.7-6.9-3.8-10.3 3.4-.8 7-1.4 10.8-1.9-1.2 1.9-2.5 3.9-3.6 6-1.2 2.1-2.3 4.2-3.4 6.2zM64 30.2c2.4 2.6 4.7 5.4 6.9 8.3-2.3-.1-4.6-.2-6.9-.2-2.3 0-4.6.1-6.9.2 2.2-2.9 4.5-5.7 6.9-8.3zm22.2 21l-3.6-6c3.8.5 7.4 1.1 10.8 1.9-1.1 3.3-2.3 6.8-3.8 10.3-1.1-2.1-2.2-4.2-3.4-6.2zM31.7 35c-1.7-10.5-.3-17.9 3.8-20.3 1-.6 2.2-.9 3.5-.9 6 0 13.5 4.9 21 12.3-3.5 3.8-7 8.2-10.4 13-5.8.5-11.3 1.4-16.5 2.5-.6-2.3-1-4.5-1.4-6.6zM7 64c0-4.7 5.7-9.7 15.7-13.4 2-.8 4.2-1.5 6.4-2.1 1.6 5 3.6 10.3 6 15.6-2.4 5.3-4.5 10.5-6 15.5C15.3 75.6 7 69.6 7 64zm28.5 49.3c-4.1-2.4-5.5-9.8-3.8-20.3.3-2.1.8-4.3 1.4-6.6 5.2 1.2 10.7 2 16.5 2.5 3.4 4.8 6.9 9.1 10.4 13-7.4 7.3-14.9 12.3-21 12.3-1.3 0-2.5-.3-3.5-.9zM96.3 93c1.7 10.5.3 17.9-3.8 20.3-1 .6-2.2.9-3.5.9-6 0-13.5-4.9-21-12.3 3.5-3.8 7-8.2 10.4-13 5.8-.5 11.3-1.4 16.5-2.5.6 2.3 1 4.5 1.4 6.6zm9-15.6c-2 .8-4.2 1.5-6.4 2.1-1.6-5-3.6-10.3-6-15.6 2.4-5.3 4.5-10.5 6-15.5 13.8 4 22.1 10 22.1 15.6 0 4.7-5.8 9.7-15.7 13.4z"/></g></symbol>
<symbol id="rust" viewBox="0 0 32 32"><path fill="#CE422B" d="M25.763 12.291a.546.546 0 1 1-.001.001zM15.342 3.906a.89.89 0 0 1 1.539.614.892.892 0 0 1-1.754.231l-.001-.006a.89.89 0 0 1 .216-.839m11.623 11.995q0 .41-.03.814H25.81c-.112 0-.158.073-.158.185v.516c0 1.216-.686 1.48-1.287 1.547-.572.065-1.206-.239-1.284-.589a3.87 3.87 0 0 0-1.772-2.994l-.015-.009a4.06 4.06 0 0 0 2.246-3.093l.002-.021a3.53 3.53 0 0 0-1.705-2.884l-.016-.009a4.8 4.8 0 0 0-2.339-.773l-.014-.001H7.838a10.95 10.95 0 0 1 6.063-3.45l.069-.011 1.371 1.438a.81.81 0 0 0 1.148.026l1.533-1.467a11 11 0 0 1 7.475 5.291l.028.053-1.05 2.372a.816.816 0 0 0 .408 1.071l.005.002 2.022.898q.053.538.053 1.089zm-13.443-1.857v-2.063h3.699c.191 0 1.349.221 1.349 1.087 0 .719-.888.977-1.618.977zm-8.416.679 1.918-.853a.814.814 0 0 0 .411-1.077l.002.005-.395-.893h1.554v7.001H5.462a10.7 10.7 0 0 1-.418-3q0-.626.069-1.234l-.005.05zm1.044-2.476a.534.534 0 1 0-1.068 0 .534.534 0 0 0 1.068 0m3.398 13.78a.892.892 0 1 1 .647-.593l.002-.006a.9.9 0 0 1-.643.599l-.006.001zm12.389-2.849a.81.81 0 0 0-.963.62l-.001.005-.447 2.085a10.8 10.8 0 0 1-4.523.974c-1.675 0-3.263-.375-4.684-1.046l.067.028-.447-2.085a.81.81 0 0 0-.969-.623l.005-.001-1.841.395a11 11 0 0 1-.931-1.093l-.021-.029h8.957c.101 0 .169-.018.169-.11v-3.169c0-.092-.067-.11-.169-.11h-2.62V17.01h2.834a1.78 1.78 0 0 1 1.741 1.5l.001.01c.113.441.359 1.88.529 2.34.168.516.854 1.547 1.585 1.547h4.463q.087-.002.168-.017l-.006.001c-.326.44-.658.828-1.016 1.192l.001-.001zm.428 2.892a2.047 2.047 0 1 0 .002-4.094 2.047 2.047 0 0 0-.004 4.094zm8.424-10.441-1.259-.779q-.016-.184-.035-.367l1.082-1.008a.437.437 0 0 0-.141-.722l-.003-.001-1.383-.517q-.051-.179-.109-.357l.863-1.198a.432.432 0 0 0-.279-.68h-.003l-1.458-.237q-.085-.165-.176-.328L28.5 8.09a.4.4 0 0 0 .039-.18.42.42 0 0 0-.075-.242l.001.001a.44.44 0 0 0-.362-.193h-.015.001l-1.48.052q-.114-.144-.234-.283l.34-1.441a.434.434 0 0 0-.525-.521l.003-.001-1.441.34q-.141-.119-.285-.234l.052-1.48v-.021a.43.43 0 0 0-.615-.388l.003-.001-1.345.614q-.163-.09-.328-.176l-.238-1.459a.436.436 0 0 0-.682-.281l.001-.001-1.199.863q-.177-.057-.357-.107l-.517-1.383a.436.436 0 0 0-.723-.144l-1.008 1.083q-.183-.021-.367-.035l-.779-1.259a.433.433 0 0 0-.735-.001l-.001.002-.779 1.259q-.184.016-.367.035l-1.01-1.083a.432.432 0 0 0-.722.141l-.001.003-.517 1.383q-.18.052-.357.107l-1.198-.863a.435.435 0 0 0-.681.28v.003l-.238 1.459q-.165.085-.328.176L8.086 3.5a.433.433 0 0 0-.613.394v.017-.001l.052 1.48q-.144.114-.285.234l-1.441-.341a.434.434 0 0 0-.521.525l-.001-.003.339 1.441q-.118.142-.233.283l-1.48-.052h-.017a.433.433 0 0 0-.393.616l-.001-.003.614 1.345q-.091.162-.176.328L2.473 10a.435.435 0 0 0-.281.682l-.001-.001.863 1.198q-.056.178-.109.357l-1.383.517a.436.436 0 0 0-.145.723l1.082 1.008q-.021.183-.035.367l-1.259.779a.428.428 0 0 0-.002.735l.002.001 1.259.779q.016.184.035.367l-1.082 1.01a.432.432 0 0 0 .141.722l.003.001 1.383.517q.051.18.109.357l-.863 1.198a.432.432 0 0 0 .281.68h.002l1.457.237q.085.165.176.328l-.614 1.345a.433.433 0 0 0 .394.613h.017-.001l1.479-.052q.115.144.234.285l-.339 1.442a.433.433 0 0 0 .525.52l-.003.001 1.441-.339q.141.12.285.233l-.052 1.48v.019a.43.43 0 0 0 .615.388l-.003.001 1.345-.612q.163.091.328.176l.238 1.457a.436.436 0 0 0 .682.282l-.001.001 1.198-.863q.178.057.357.109l.517 1.383a.43.43 0 0 0 .722.144l1.01-1.082q.182.02.367.037l.779 1.259a.436.436 0 0 0 .735.001l.001-.002.779-1.259a15 15 0 0 0 .367-.037l1.008 1.082a.437.437 0 0 0 .722-.141l.001-.003.517-1.383q.179-.051.357-.109l1.198.863a.432.432 0 0 0 .68-.281v-.002l.238-1.457q.165-.086.328-.176l1.345.612a.434.434 0 0 0 .613-.396v-.014.001l-.052-1.48q.144-.113.283-.233l1.441.339q.046.01.098.011a.434.434 0 0 0 .422-.534l.001.003-.339-1.442q.118-.14.233-.285l1.48.052h.02a.43.43 0 0 0 .388-.615l.001.003-.612-1.345q.09-.163.176-.328l1.457-.237a.436.436 0 0 0 .281-.682l.001.001-.863-1.198.109-.357 1.383-.517a.434.434 0 0 0 .144-.723l-1.082-1.01q.02-.182.035-.367l1.259-.779a.43.43 0 0 0 .002-.735l-.002-.001z"/></symbol>
<symbol id="sun" viewBox="0 0 24 24"><circle cx="12" cy="12" r="5" stroke="currentColor" stroke-width="2" fill="none"/>
  <path d="M12 1v2M12 21v2M4.22 4.22l1.42 1.42M18.36 18.36l1.42 1.42M1 12h2M21 12h2M4.22 19.78l1.42-1.42M18.36 5.64l1.42-1.42" stroke="currentColor" stroke-width="2" stroke-linecap="round" stroke-linejoin="round"/></symbol>
<symbol id="typescript" viewBox="0 0 128 128"><path fill="#007acc" d="M2 63.91v62.5h125v-125H2zm100.73-5a15.56 15.56 0 017.82 4.5 20.58 20.58 0 013 4c0 .16-5.4 3.81-8.69 5.85-.12.08-.6-.44-1.13-1.23a7.09 7.09 0 00-5.87-3.53c-3.79-.26-6.23 1.73-6.21 5a4.58 4.58 0 00.54 2.34c.83 1.73 2.38 2.76 7.24 4.86 8.95 3.85 12.78 6.39 15.16 10 2.66 4 3.25 10.46 1.45 15.24-2 5.2-6.9 8.73-13.83 9.9a38.32 38.32 0 01-9.52-.1A23 23 0 0180 109.19c-1.15-1.27-3.39-4.58-3.25-4.82a9.34 9.34 0 011.15-.73l4.6-2.64 3.59-2.08.75 1.11a16.78 16.78 0 004.74 4.54c4 2.1 9.46 1.81 12.16-.62a5.43 5.43 0 00.69-6.92c-1-1.39-3-2.56-8.59-5-6.45-2.78-9.23-4.5-11.77-7.24a16.48 16.48 0 01-3.43-6.25 25 25 0 01-.22-8c1.33-6.23 6-10.58 12.82-11.87a31.66 31.66 0 019.49.26zm-29.34 5.24v5.12H57.16v46.23H45.65V69.26H29.38v-5a49.19 49.19 0 01.14-5.16c.06-.08 10-.12 22-.1h21.81z"/></symbol>
<symbol id="vercel" viewBox="0 0 128 128"><path d="M64.002 8.576 128 119.424H0Zm0 0" fill="currentColor"/></symbol>
</svg>