<svg xmlns="http://www.w3.org/2000/svg" width="24" height="24" viewBox="0 0 24 24"><title>Zeromq SVG Icon</title><path fill="currentColor" d="m22.088 5.499 1.894-1.894L20.395.018l-1.894 1.894A11.94 11.94 0 0 0 12 0C5.373 0 0 5.373 0 12c0 2.396.702 4.627 1.912 6.501L.018 20.395l3.587 3.587 1.894-1.894A11.94 11.94 0 0 0 12 24c6.627 0 12-5.373 12-12 0-2.396-.702-4.627-1.912-6.501M4.569 12a7.43 7.43 0 0 1 10.577-6.733l-9.88 9.88A7.4 7.4 0 0 1 4.569 12M12 19.431a7.4 7.4 0 0 1-3.146-.698l9.88-9.88A7.433 7.433 0 0 1 12 19.431"/></svg>